<svg height="512pt" viewBox="-17 0 512 512.06472" width="512pt" xmlns="http://www.w3.org/2000/svg"><path d="m468.25 221.929688c-2.898438-22.046876-11.550781-42.945313-25.089844-60.585938-6.917968-9.050781-15.011718-17.144531-24.0625-24.0625-17.640625-13.539062-38.539062-22.191406-60.585937-25.089844-33.304688-4.496094-67.039063 4.335938-93.867188 24.578125v-.171875c-.007812-5.710937-.40625-11.410156-1.195312-17.066406-2.894531-22.046875-11.550781-42.945312-25.089844-60.585938-6.917969-9.054687-15.007813-17.144531-24.0625-24.066406-17.640625-13.539062-38.539063-22.191406-60.585937-25.085937-11.324219-1.59375-22.8125-1.59375-34.132813 0-22.050781 2.894531-42.945313 11.546875-60.585937 25.085937-9.054688 6.921875-17.144532 15.011719-24.066407 24.066406-13.539062 17.640626-22.191406 38.539063-25.085937 60.585938-1.59375 11.320312-1.59375 22.8125 0 34.132812 4.472656 33.652344 22.199218 64.125 49.234375 84.652344 8.164062 6.242188 17.042969 11.488282 26.457031 15.613282-13.71875 21.171874-22.203125 45.304687-24.75 70.402343-7.5625 71.433594 32.796875 139.324219 99.164062 166.808594 66.371094 27.488281 142.910157 8.011719 188.070313-47.855469 19.398437-23.835937 31.542969-52.746094 34.984375-83.285156 45.765625-15.785156 78.757812-55.972656 85.335938-103.933594.714843-5.664062 1.085937-11.363281 1.109374-17.070312-.007812-5.707032-.40625-11.410156-1.195312-17.066406zm-85.078125 102.402343c-.015625-.433593-.070313-.859375-.171875-1.28125h.085938c.070312.421875.101562.851563.085937 1.28125zm-190.0625-142.4375c.515625-.136719 1.035156-.246093 1.5625-.324219.339844-.085937.679687-.085937 1.023437-.171874-.886718.144531-1.722656.339843-2.585937.496093zm99.011719 13.582031h.085937l.058594.0625c-.332031-.128906-.640625-.28125-.996094-.402343.289063.097656.574219.210937.851563.339843zm26.453125 15.875-.085938-.085937h.085938zm5.574219 4.351563.058593.058594c-.101562-.15625-.25-.277344-.425781-.339844.144531.109375.238281.21875.367188.304687zm0 0" fill="#ebeced"/><path d="m214.296875 34.878906-24.40625 24.40625h-.082031c-10.8125-7.546875-23.125-12.671875-36.097656-15.019531v-34.472656c22.046874 2.894531 42.945312 11.546875 60.585937 25.085937zm0 0" fill="#008ac7"/><path d="m238.359375 58.945312-24.402344 24.488282c-6.433593-9.488282-14.597656-17.679688-24.066406-24.148438l24.40625-24.40625c9.054687 6.921875 17.144531 15.011719 24.0625 24.066406zm0 0" fill="#f6f6f6"/><path d="m230.511719 136.597656c.027343 14.855469-3.546875 29.496094-10.410157 42.667969v.085937h-1.195312c-1.707031 0-3.5 0-5.207031.167969-.570313-.011719-1.140625.015625-1.707031.085938h-.085938c-2.300781.171875-4.605469.339843-6.910156.597656h-.085938c-.363281.070313-.738281.097656-1.109375.085937-.402343.019532-.800781.078126-1.195312.171876h-.167969c-.773438.070312-1.542969.183593-2.304688.339843-.941406.085938-1.878906.253907-2.902343.425781-.191407.070313-.394531.101563-.597657.085938h-.171874c-.167969 0-.253907.085938-.425782.085938h-.339844c-.34375.085937-.683593.085937-1.023437.171874-.691406.097657-1.375.242188-2.050781.425782-1.023438.167968-2.132813.339844-3.15625.597656l-1.195313.253906c-2.21875.425782-4.351562.941406-6.570312 1.535156-.339844.085938-.765625.171876-1.195313.257813-2.21875.597656-4.519531 1.28125-6.738281 1.960937l-.769531.257813c-1.304688.347656-2.585938.777344-3.839844 1.28125-.425781.167969-.769531.253906-1.195312.425781-.667969.1875-1.320313.417969-1.960938.683594-.085938 0-.171875.082031-.34375.082031-.546875.28125-1.117188.507813-1.707031.683594-1.363281.511719-2.730469 1.109375-4.007813 1.621094-.34375.171875-.683594.257812-1.027344.429687-.167968.082032-.339843.082032-.511718.167969-.167969.085937-.082032.085937-.167969.085937-2.21875 1.023438-4.4375 1.960938-6.570313 2.988282-.085937.082031-.085937.082031-.171874.082031-2.304688 1.109375-4.523438 2.21875-6.742188 3.5-1.148438.558594-2.257812 1.183594-3.328125 1.878906-1.851563.980469-3.644531 2.0625-5.375 3.242188-1.128906.601562-2.214844 1.285156-3.242187 2.046875-.085938 0-.085938 0-.085938.085937-.359375.199219-.703125.425781-1.023438.683594-1.878906 1.195313-3.585937 2.386719-5.375 3.753906-.300781.179688-.585937.378907-.855468.597657-.9375.683593-1.875 1.449218-2.816406 2.21875-.851563.597656-1.707032 1.28125-2.558594 1.960937-.335938.226563-.652344.484375-.9375.769531l-1.707032 1.449219c-.941406.699219-1.828124 1.46875-2.648437 2.304687-.167969.085938-.253906.257813-.425781.425782-.511719.429687-1.109375.941406-1.621094 1.453125-.628906.441406-1.199219.957031-1.707031 1.535156-.085938 0-.085938 0-.085938.171875h-.082031l-.257812.253906c-.128907.0625-.242188.152344-.339844.257813-.769532.679687-1.453125 1.363281-2.132813 2.046875-32.964843-10.527344-57.460937-38.335938-63.746093-72.363282-1.101563-5.621093-1.644532-11.335937-1.621094-17.066406-.007813-5.722656.503906-11.4375 1.535156-17.066406 4.601562-24.4375 18.644531-46.082031 39.082031-60.246094h.085938c10.8125-7.546875 23.125-12.671875 36.097656-15.019531 11.285156-2.046875 22.847656-2.046875 34.132813 0 12.972656 2.347656 25.285156 7.472656 36.097656 15.019531h.082031c20.441406 14.164063 34.480469 35.808594 39.085937 60.246094 1.027344 5.628906 1.542969 11.34375 1.535157 17.066406zm0 0" fill="#00b7f6"/><path d="m469.445312 238.996094c-.023437 5.707031-.394531 11.40625-1.109374 17.070312h-34.5625c2.050781-11.289062 2.050781-22.851562 0-34.136718h34.476562c.789062 5.65625 1.1875 11.359374 1.195312 17.066406zm0 0" fill="#728f9c"/><path d="m468.25 221.929688h-34.476562c-2.347657-12.972657-7.46875-25.285157-15.015626-36.09375l9.640626-9.644532 14.761718-14.847656c13.539063 17.640625 22.191406 38.539062 25.089844 60.585938zm0 0" fill="#d13d34"/><path d="m358.511719 112.191406v34.476563c-11.285157-2.050781-22.847657-2.050781-34.132813 0v-34.476563c11.320313-1.589844 22.808594-1.589844 34.132813 0zm0 0" fill="#f6f6f6"/><path d="m324.378906 112.191406v34.476563c-12.710937 2.367187-24.796875 7.335937-35.5 14.589843l-25.003906-23.890624c.257812-.171876.511719-.429688.769531-.597657 17.417969-13.273437 38.015625-21.75 59.734375-24.578125zm0 0" fill="#f85b44"/><path d="m288.878906 161.257812c-9.40625 6.433594-17.582031 14.496094-24.148437 23.808594-8.394531-2.40625-16.992188-4.035156-25.6875-4.863281-3.582031-.425781-7.082031-.683594-10.75-.851563 0-.085937.085937-.171874.085937-.257812.152344-.324219.320313-.636719.511719-.9375.253906-.429688.425781-.855469.679687-1.195312.378907-.742188.804688-1.453126 1.28125-2.132813.257813-.425781.425782-.769531.683594-1.195313.488282-.910156 1.03125-1.796874 1.621094-2.644531 1.550781-2.558593 3.230469-5.039062 5.035156-7.425781.765625-1.023438 1.535156-2.132812 2.304688-3.070312 1.816406-2.421876 3.785156-4.730469 5.886718-6.914063 1.363282-1.621094 2.902344-3.242187 4.4375-4.777344.441407-.5.925782-.957031 1.449219-1.367187 1.082031-1.167969 2.25-2.253906 3.5-3.242188 2.5625-2.433594 5.269531-4.714844 8.105469-6.824218zm0 0" fill="#f6f6f6"/><path d="m264.644531 136.597656v.171875c-.257812.167969-.511719.425781-.769531.597657-2.835938 2.109374-5.542969 4.390624-8.105469 6.824218-1.25.988282-2.417969 2.074219-3.5 3.242188-.523437.410156-1.007812.867187-1.449219 1.367187-1.535156 1.535157-3.074218 3.15625-4.4375 4.777344-2.101562 2.183594-4.070312 4.492187-5.886718 6.914063-.769532 1.023437-1.621094 2.046874-2.304688 3.070312-1.804687 2.386719-3.484375 4.867188-5.035156 7.425781-.589844.847657-1.132812 1.734375-1.621094 2.644531-.292968.359376-.523437.761719-.683594 1.195313-.476562.679687-.902343 1.390625-1.28125 2.132813-.253906.339843-.425781.765624-.679687 1.195312-.191406.300781-.359375.613281-.511719.9375-.085937.085938-.085937.171875-.171875.257812-2.046875-.085937-4.183593-.085937-6.230469-.085937h-1.875c6.863282-13.171875 10.4375-27.8125 10.410157-42.667969.007812-5.722656-.507813-11.4375-1.535157-17.066406h34.472657c.789062 5.65625 1.1875 11.355469 1.195312 17.066406zm0 0" fill="#f6f6f6"/><path d="m263.449219 119.53125h-34.472657c-2.351562-12.972656-7.472656-25.285156-15.019531-36.097656l24.402344-24.488282c13.539063 17.640626 22.195313 38.539063 25.089844 60.585938zm0 0" fill="#008ac7"/><path d="m153.710938 9.792969v34.472656c-11.285157-2.046875-22.847657-2.046875-34.132813 0v-34.472656c11.320313-1.59375 22.808594-1.59375 34.132813 0zm0 0" fill="#f6f6f6"/><path d="m119.578125 9.792969v34.472656c-12.972656 2.347656-25.285156 7.472656-36.097656 15.019531h-.085938l-24.402343-24.40625c17.640624-13.539062 38.535156-22.191406 60.585937-25.085937zm0 0" fill="#008ac7"/><path d="m83.394531 59.285156c-9.464843 6.46875-17.628906 14.660156-24.0625 24.148438l-24.40625-24.488282c6.921875-9.054687 15.011719-17.144531 24.066407-24.066406zm0 0" fill="#f6f6f6"/><path d="m59.332031 83.433594c-7.546875 10.8125-12.671875 23.125-15.019531 36.097656h-34.472656c2.894531-22.046875 11.546875-42.945312 25.085937-60.585938zm0 0" fill="#008ac7"/><path d="m44.398438 153.664062h-34.558594c-1.59375-11.320312-1.59375-22.8125 0-34.132812h34.472656c-1.03125 5.628906-1.542969 11.34375-1.535156 17.066406-.023438 5.730469.519531 11.445313 1.621094 17.066406zm0 0" fill="#f6f6f6"/><path d="m59.332031 189.761719-24.40625 24.488281c-13.539062-17.640625-22.191406-38.535156-25.085937-60.585938h34.558594c2.355468 12.957032 7.445312 25.261719 14.933593 36.097657zm0 0" fill="#008ac7"/><path d="m83.480469 213.910156-24.40625 24.40625c-9.097657-6.894531-17.21875-14.992187-24.148438-24.066406l24.40625-24.488281c6.488281 9.472656 14.675781 17.660156 24.148438 24.148437zm0 0" fill="#f6f6f6"/><path d="m108.144531 226.027344c-1.480469 1.367187-2.878906 2.820312-4.183593 4.351562-2.21875 2.390625-4.4375 4.863282-6.570313 7.425782-.527344.527343-1.015625 1.097656-1.449219 1.707031-1.6875 1.949219-3.253906 4.003906-4.695312 6.140625-2.046875 2.730468-3.925782 5.460937-5.714844 8.277344-9.414062-4.125-18.292969-9.371094-26.457031-15.613282l24.40625-24.40625c7.570312 5.25 15.882812 9.332032 24.664062 12.117188zm0 0" fill="#008ac7"/><path d="m323.78125 215.445312-24.152344 24.234376h-.082031c-17.613281-13.535157-38.480469-22.191407-60.503906-25.085938v-34.132812c8.648437.855468 17.210937 2.425781 25.601562 4.691406h.085938l2.558593.769531c.683594.167969 1.367188.425781 1.964844.597656 1.535156.511719 2.984375 1.023438 4.433594 1.449219 4.4375 1.535156 8.792969 3.242188 13.058594 5.035156 1.109375.511719 2.304687 1.023438 3.414062 1.535156.425782.171876.765625.339844 1.109375.511719v.085938c.765625.253906 1.363281.597656 2.046875.851562l.085938.085938c.402344.082031.785156.257812 1.109375.511719 1.109375.511718 2.21875 1.109374 3.242187 1.707031 1.707032.855469 3.328125 1.707031 4.949219 2.644531.316406.105469.609375.28125.851563.511719 1.109374.597656 2.21875 1.28125 3.328124 1.964843l.769532.511719c.578125.28125 1.121094.621094 1.621094 1.023438.320312.105469.609374.28125.851562.511719.257812.171874.597656.34375.855469.511718.121093.140625.265625.253906.425781.34375.171875.167969.425781.253906.597656.425782.085938 0 .085938 0 .171875.085937.234375.199219.492188.371094.765625.511719l.171875.171875c.226563.058593.429688.175781.597657.339843.054687.054688.113281.113282.171874.171876.445313.253906.871094.539062 1.277344.851562.683594.425781 1.367188.9375 2.050782 1.449219.445312.285156.871093.601562 1.277343.941406l.085938.085937c.503906.339844.988281.710938 1.449219 1.109376h.085937c.277344.171874.535156.371093.769531.59375.277344.207031.535156.433593.769532.683593.503906.34375.988281.714844 1.449218 1.109375h.085938c.175781.222656.375.421875.597656.597656zm0 0" fill="#66993e"/><path d="m204.910156 180.203125v34.390625c-21.828125 2.855469-42.535156 11.355469-60.074218 24.660156l-24.660157-23.808594c.765625-.683593 1.621094-1.363281 2.472657-2.046874.855468-.683594 1.878906-1.535157 2.816406-2.21875.269531-.21875.554687-.417969.855468-.597657 1.703126-1.28125 3.496094-2.558593 5.375-3.753906.320313-.257813.664063-.484375 1.023438-.683594 0-.085937 0-.085937.085938-.085937 1.027343-.761719 2.113281-1.445313 3.242187-2.046875 1.730469-1.179688 3.523437-2.261719 5.375-3.242188 1.070313-.695312 2.179687-1.320312 3.328125-1.878906 2.21875-1.195313 4.4375-2.304687 6.742188-3.5.085937 0 .085937 0 .171874-.082031 2.132813-1.027344 4.351563-1.964844 6.570313-2.988282.085937 0 .085937-.085937.167969-.085937.085937 0 .34375-.085937.511718-.167969.34375-.171875.683594-.257812 1.027344-.429687 1.277344-.511719 2.644532-1.109375 4.007813-1.621094.589843-.175781 1.160156-.402344 1.707031-.683594.171875 0 .257812-.082031.34375-.082031.640625-.265625 1.292969-.496094 1.960938-.683594.425781-.171875.769531-.257812 1.195312-.425781 1.253906-.503906 2.535156-.933594 3.839844-1.28125l.769531-.257813c2.21875-.679687 4.519531-1.363281 6.738281-1.960937.429688-.085937.855469-.171875 1.195313-.257813 2.21875-.59375 4.351562-1.109374 6.570312-1.535156l1.195313-.253906c2.046875-.429688 4.265625-.855469 6.402344-1.195312h.167968c.171875 0 .257813-.085938.425782-.085938.261718.015625.519531-.015625.769531-.085938.9375-.171874 1.878906-.253906 2.902343-.425781.761719-.15625 1.53125-.269531 2.304688-.339843h.167969c.394531-.09375.792969-.152344 1.195312-.171876.371094.011719.746094-.015624 1.109375-.085937zm0 0" fill="#66993e"/><path d="m144.835938 239.253906c-9.425782 7.164063-17.835938 15.574219-25.003907 25.003906l-23.808593-24.664062c.429687-.597656.855468-1.191406 1.367187-1.789062 2.132813-2.5625 4.351563-5.035157 6.570313-7.425782s4.351562-4.4375 6.65625-6.65625l.257812-.253906h.082031c0-.171875 0-.171875.085938-.171875.507812-.578125 1.078125-1.09375 1.707031-1.535156.511719-.511719 1.109375-1.023438 1.621094-1.453125.171875-.167969.257812-.339844.425781-.425782.820313-.835937 1.707031-1.605468 2.648437-2.304687l1.707032-1.449219c.320312-.257812.660156-.484375 1.023437-.683594zm0 0" fill="#f6f6f6"/><path d="m119.832031 264.257812c-13.269531 17.558594-21.765625 38.253907-24.660156 60.074219h-34.390625c2.546875-25.097656 11.03125-49.230469 24.75-70.402343h.082031c1.792969-2.816407 3.671875-5.546876 5.632813-8.277344 1.535156-2.046875 3.074218-4.09375 4.777344-6.058594zm0 0" fill="#66993e"/><path d="m93.976562 341.398438c.007813 5.707031.40625 11.410156 1.195313 17.066406h-34.390625c-1.25-11.34375-1.25-22.789063 0-34.132813h34.390625c-.789063 5.652344-1.1875 11.355469-1.195313 17.066407zm0 0" fill="#f6f6f6"/><path d="m120.261719 418.964844-24.320313 24.320312c-19.722656-24.25-31.941406-53.726562-35.160156-84.820312h34.390625c2.914063 22.019531 11.566406 42.882812 25.089844 60.5zm0 0" fill="#66993e"/><path d="m144.410156 443.113281-24.320312 24.320313c-8.882813-7.171875-16.976563-15.265625-24.148438-24.148438l24.320313-24.320312c6.878906 9.140625 15.007812 17.269531 24.148437 24.148437zm0 0" fill="#f6f6f6"/><path d="m204.910156 468.203125v34.390625c-31.085937-3.234375-60.5625-15.449219-84.820312-35.160156l24.320312-24.320313c17.597656 13.558594 38.472656 22.214844 60.5 25.089844zm0 0" fill="#66993e"/><path d="m239.042969 468.203125v34.390625c-11.34375 1.25-22.789063 1.25-34.132813 0v-34.390625c5.257813.742187 10.5625 1.144531 15.871094 1.195313h1.195312c5.710938-.007813 11.414063-.40625 17.066407-1.195313zm0 0" fill="#f6f6f6"/><path d="m323.867188 467.433594c-24.253907 19.722656-53.730469 31.941406-84.824219 35.160156v-34.390625c22.023437-2.898437 42.890625-11.550781 60.503906-25.089844zm0 0" fill="#66993e"/><path d="m348.015625 443.285156c-7.175781 8.882813-15.269531 16.976563-24.148437 24.148438l-24.320313-24.320313c9.121094-6.898437 17.246094-15.027343 24.148437-24.148437zm0 0" fill="#f6f6f6"/><path d="m383.171875 358.464844c-.085937.511718-.085937 1.023437-.171875 1.535156-3.441406 30.539062-15.585938 59.449219-34.984375 83.285156l-24.320313-24.320312c13.535157-17.609375 22.191407-38.476563 25.085938-60.5zm0 0" fill="#66993e"/><path d="m384.109375 341.398438c-.007813 5.699218-.324219 11.398437-.9375 17.066406h-34.390625c1.59375-11.324219 1.59375-22.8125 0-34.132813h34.390625c.070313.160157.097656.335938.085937.511719.253907 2.046875.425782 4.09375.511719 6.230469.253907 3.410156.339844 6.824219.339844 10.324219zm0 0" fill="#f6f6f6"/><path d="m349.976562 341.398438c-.007812 5.707031-.40625 11.410156-1.195312 17.066406-2.894531 22.023437-11.550781 42.890625-25.085938 60.5-6.902343 9.121094-15.027343 17.25-24.148437 24.148437-17.613281 13.539063-38.480469 22.191407-60.503906 25.089844-5.652344.789063-11.355469 1.1875-17.066407 1.195313h-1.195312c-5.308594-.050782-10.613281-.453126-15.871094-1.195313-22.027344-2.875-42.902344-11.53125-60.5-25.089844-9.140625-6.878906-17.269531-15.007812-24.148437-24.148437-13.523438-17.617188-22.175781-38.480469-25.089844-60.5-1.59375-11.324219-1.59375-22.8125 0-34.132813 2.894531-21.820312 11.390625-42.515625 24.660156-60.074219 7.167969-9.429687 15.578125-17.839843 25.003907-25.003906 17.539062-13.304687 38.246093-21.804687 60.074218-24.660156 5.65625-.789062 11.359375-1.1875 17.066406-1.195312h.855469c5.425781.003906 10.84375.40625 16.210938 1.195312 22.023437 2.894531 42.890625 11.550781 60.503906 25.085938h.082031c9.117188 6.882812 17.21875 15.011718 24.066406 24.148437 13.535157 17.613281 22.191407 38.480469 25.085938 60.503906.789062 5.652344 1.1875 11.355469 1.195312 17.066407zm0 0" fill="#9aca5c"/><path d="m347.929688 239.59375v.085938l-24.234376 24.148437c-6.847656-9.136719-14.949218-17.265625-24.066406-24.148437l24.152344-24.234376c.175781.0625.324219.183594.425781.34375h.085938c.085937 0 .085937 0 .167969.167969l.085937.085938c.085937 0 .257813.171875.34375.257812.253906.167969.511719.425781.765625.597657l.425781.425781c.246094.148437.472657.320312.683594.511719.277344.203124.535156.429687.769531.683593.210938.085938.386719.234375.511719.425781.722656.546876 1.410156 1.144532 2.046875 1.792969.597656.59375 1.195312 1.109375 1.878906 1.703125.085938.085938.171875.085938.253906.257813l.085938.085937c.085938 0 .085938 0 .085938.085938.046874 0 .085937.035156.085937.085937l.085937.082031c.085938 0 .085938.085938.167969.171876.191407.117187.363281.261718.515625.425781.511719.429687 1.023438.941406 1.449219 1.367187.355469.269532.667969.582032.9375.9375.023437 0 .046875.007813.0625.027344.015625.015625.023437.035156.023437.058594.324219.238281.613282.527344.851563.851562.683594.597656 1.367187 1.367188 2.050781 2.050782l.339844.339843c.597656.597657 1.195312 1.28125 1.707031 1.878907.171875.085937.257813.167968.257813.253906l.9375 1.023437c.339844.429688.683594.769531 1.023437 1.195313.269531.183594.5.414062.683594.683594.339844.425781.765625.851562 1.109375 1.28125l.253906.253906c.171875.179687.316406.378906.429688.597656.261718.164062.46875.402344.59375.683594.246094.183594.445312.417968.597656.683594.3125.316406.597656.660156.855469 1.023437zm0 0" fill="#f6f6f6"/><path d="m239.042969 180.460938v34.132812c-5.367188-.789062-10.785157-1.191406-16.210938-1.195312h-.855469c-5.707031.007812-11.410156.40625-17.066406 1.195312v-34.390625h.085938c2.304687-.257813 4.609375-.425781 6.910156-.597656h.085938c.566406-.070313 1.136718-.097657 1.707031-.085938 1.707031-.167969 3.5-.167969 5.207031-.167969h1.195312v-.085937h1.875c2.046876 0 4.097657.253906 6.144532.339844 3.667968.171875 7.339844.425781 10.921875.855469zm0 0" fill="#f6f6f6"/><path d="m383.171875 324.332031h-34.390625c-2.894531-22.023437-11.550781-42.890625-25.085938-60.503906l24.234376-24.148437c.171874 0 .253906.171874.339843.257812l.257813.253906.085937.085938c.132813.125.246094.269531.339844.425781l.769531 1.023437c.753906.824219 1.4375 1.710938 2.046875 2.648438.085938.167969.253907.339844.339844.511719.085937.167969.257813.253906.34375.425781l.511719.769531c.425781.597657.851562 1.109375 1.277344 1.707031.515624.765626 1.027343 1.449219 1.539062 2.214844.511719.769532 1.195312 1.792969 1.789062 2.648438.257813.511718.597657.9375.855469 1.363281.046875.046875.078125.105469.085938.171875.046875.042969.078125.105469.085937.171875l.167969.167969c.011719.066406.039063.125.085937.171875 1.28125 2.046875 2.558594 4.097656 3.753907 6.230469.941406 1.535156 1.792969 3.15625 2.648437 4.777343l.765625 1.535157c0 .085937.085938.085937.085938.171874.25.53125.535156 1.042969.851562 1.535157.175781.507812.40625.992187.683594 1.453125 0 .167968.085937.167968.171875.253906.339844.9375.765625 1.878906 1.195312 2.816406.144532.210938.261719.4375.339844.683594 2.132813 4.605469 4.011719 9.386719 5.71875 14.25h.085938c.339844.9375.59375 1.792969.9375 2.730469.246094.542969.417968 1.117187.511718 1.707031.085938.085938.085938.085938.085938.171875 0 .082031.085938.082031.085938.167969.597656 1.792968 1.109374 3.585937 1.535156 5.460937.597656 1.964844 1.109375 4.011719 1.535156 6.058594.425781 2.050781.855469 4.011719 1.28125 6.058594.0625.070312.09375.164062.085938.257812.082031.425781.167968.9375.253906 1.449219.15625.648438.269531 1.304688.34375 1.964844.082031.425781.167968.9375.253906 1.363281v.257813c.339844 2.304687.683594 4.691406.9375 6.996093.101562.421875.15625.847657.171875 1.28125zm0 0" fill="#66993e"/><path d="m435.3125 238.996094c.007812 5.726562-.507812 11.4375-1.539062 17.070312-2.414063 12.9375-7.5625 25.214844-15.101563 36.007813-9.113281 13.113281-21.34375 23.757812-35.585937 30.976562h-.085938c-.253906-2.304687-.597656-4.691406-.9375-6.996093.039062-.03125.0625-.078126.0625-.128907s-.023438-.097656-.0625-.128906c-.085938-.425781-.171875-.9375-.253906-1.363281-.074219-.660156-.1875-1.316406-.34375-1.964844-.035156-.488281-.121094-.976562-.253906-1.449219.007812-.09375-.023438-.1875-.085938-.257812-.425781-2.046875-.855469-4.09375-1.28125-6.058594-.425781-1.960937-.9375-4.09375-1.535156-6.058594-.425782-1.875-.9375-3.667969-1.535156-5.460937 0-.085938 0-.085938-.085938-.167969-.085938-.085937 0-.085937-.085938-.171875-.09375-.589844-.265624-1.164062-.511718-1.707031-.34375-.9375-.597656-1.792969-.9375-2.730469v-.085938c-.105469-.4375-.246094-.867187-.429688-1.28125l-.253906-.765624c-.425781-1.195313-.855469-2.390626-1.367188-3.585938-.839843-2.324219-1.808593-4.605469-2.898437-6.824219-.25-.585937-.535156-1.15625-.855469-1.707031-.078125-.246094-.195312-.472656-.339844-.683594-.429687-.9375-.855468-1.878906-1.195312-2.816406 0-.085938-.085938-.171875-.171875-.253906-.277344-.460938-.507813-.945313-.683594-1.453125-.316406-.492188-.601562-1.003907-.851562-1.535157 0-.085937-.085938-.085937-.085938-.171874l-.765625-1.535157-.769531-1.535156c-.597656-1.109375-1.195313-2.21875-1.878906-3.242187-.164063-.386719-.363281-.757813-.597657-1.109376-.152343-.324218-.320312-.636718-.511718-.941406-.851563-1.449218-1.707032-2.8125-2.644532-4.179687-.046874-.046875-.074218-.105469-.085937-.171875l-.167969-.167969c-.007812-.066406-.039062-.128906-.085937-.171875-.007813-.066406-.039063-.125-.085938-.171875-.257812-.425781-.597656-.851563-.855469-1.363281-.59375-.855469-1.191406-1.792969-1.789062-2.648438-.597656-.851562-1.023438-1.449218-1.539062-2.214844-.425782-.597656-.851563-1.109374-1.277344-1.707031l-.511719-.769531c-.085937-.171875-.257813-.257812-.34375-.425781-.085937-.171875-.253906-.34375-.339844-.511719-.609375-.9375-1.292969-1.824219-2.046875-2.648438l-.769531-1.023437c-.09375-.15625-.207031-.300781-.339844-.425781l-.085937-.085938-.257813-.253906c0-.171875-.167969-.257812-.253906-.425781-.179687-.246094-.378906-.476563-.597656-.683594-.257813-.363281-.542969-.707031-.855469-1.023437-.152344-.265626-.351562-.5-.597656-.683594-.125-.28125-.332032-.519532-.59375-.683594-.113282-.21875-.257813-.417969-.429688-.597656l-.253906-.253906c-.34375-.429688-.769531-.855469-1.109375-1.28125-.183594-.269532-.414063-.5-.683594-.683594-.339843-.425782-.683593-.765625-1.023437-1.195313l-.9375-1.023437c0-.085938-.085938-.167969-.257813-.253906-.511719-.597657-1.109375-1.28125-1.707031-1.878907l-.339844-.339843c-.683594-.683594-1.367187-1.453126-2.050781-2.050782-.238281-.324218-.527344-.613281-.851563-.851562 0-.046875-.039062-.085938-.085937-.085938-.269531-.355468-.582031-.667968-.9375-.9375-.425781-.425781-.9375-.9375-1.449219-1.367187-.152344-.164063-.324218-.308594-.515625-.425781-.082031-.085938-.082031-.171876-.167969-.171876-.085937 0 0-.167968-.085937-.082031 0-.171875-.085937-.085937-.085937-.085937l-.085938-.085938v-.085937h-.085938c-.082031-.171875-.167968-.171875-.253906-.257813-.683594-.59375-1.28125-1.109375-1.878906-1.703125-.636719-.648437-1.324219-1.246093-2.046875-1.792969-.125-.191406-.300781-.339843-.511719-.425781-.234375-.253906-.492187-.480469-.769531-.683593-.210937-.191407-.4375-.363282-.683594-.511719l-.425781-.425781c-.253906-.171876-.511719-.429688-.765625-.597657-.085937-.085937-.257813-.257812-.34375-.257812l-.085937-.085938c-.082032-.167969-.082032-.167969-.167969-.167969h-.085938c0-.050781-.039062-.085937-.085937-.085937v-.085937l-.085938-.085938c0-.085938 0-.085938-.085937 0v-.085938h-.082031v-.085937c-.214844-.191406-.441407-.359375-.683594-.511719h-.085938c-.464844-.394531-.945312-.765625-1.449218-1.109375-.234376-.25-.492188-.480469-.769532-.683593-.234375-.222657-.492187-.421876-.769531-.59375h-.085937c-.425782-.429688-.9375-.769532-1.449219-1.195313h-.085938c-.40625-.339844-.832031-.65625-1.277343-.941406-.683594-.511719-1.367188-1.023438-2.050782-1.449219-.273437-.171875-.53125-.371094-.765625-.597656l-.511719-.253906c-.058593-.058594-.117187-.117188-.171874-.171876-.167969-.164062-.371094-.28125-.597657-.34375l-.171875-.167968h-.085937v-.085938h-.082031c-.023438 0-.046876-.007812-.0625-.023437-.015626-.019531-.023438-.039063-.023438-.0625h-.085938l-.085937-.085938c-.046875 0-.085937-.039062-.085937-.085937l-.167969-.167969h-.085938c-.085937-.085937-.085937-.085937-.171875-.085937-.148437-.167969-.320312-.3125-.511718-.425782h-.085938c-.121094-.140625-.265625-.257812-.425781-.34375-.257813-.167968-.597657-.339844-.855469-.511718-.242188-.230469-.53125-.40625-.851562-.511719-.5-.402344-1.042969-.746094-1.621094-1.023438-.199219-.203125-.429688-.378906-.683594-.511719h-.171875c-.148437-.144531-.320313-.257812-.511719-.339843-.046875 0-.082031-.039063-.082031-.085938-.171875-.085937-.34375-.257812-.515625-.34375-.339844-.167969-.765625-.425781-1.109375-.597656-.320313-.230469-.664063-.429687-1.023437-.597656-.242188-.230469-.535157-.40625-.851563-.511719-1.621094-.9375-3.242187-1.789062-4.949219-2.644531-1.023437-.597657-2.132812-1.195313-3.242187-1.707031-.324219-.253907-.707031-.429688-1.109375-.511719l-.085938-.085938h-.085937c-.085938-.082031-.085938-.082031-.171875-.082031l-.082032-.085938h-.085937c-.082031-.105468-.210937-.167968-.34375-.171874-.066406-.066407-.160156-.097657-.253906-.085938l-.085938-.085938h-.085937c-.277344-.128906-.5625-.242187-.851563-.339843v-.085938c-.34375-.171875-.683593-.339843-1.109375-.511719-1.109375-.511718-2.304687-1.023437-3.414062-1.535156-4.265625-1.792968-8.621094-3.5-13.058594-5.035156-1.449219-.425781-2.898438-.9375-4.433594-1.449219-.597656-.171875-1.28125-.429687-1.964844-.597656l-2.558593-.769531v-.085938c6.566406-9.3125 14.742187-17.375 24.148437-23.808594 20.410156-13.78125 45.40625-19.019531 69.632813-14.589843 12.972656 2.347656 25.285156 7.46875 36.09375 15.019531h.085937c20.441406 14.160156 34.480469 35.804688 39.082032 60.242188 1.03125 5.632812 1.546874 11.34375 1.539062 17.066406zm0 0" fill="#f85b44"/><path d="m383.171875 358.464844c.613281-5.667969.929687-11.367188.9375-17.066406 0-3.5-.085937-6.914063-.339844-10.324219-.085937-2.136719-.257812-4.183594-.511719-6.230469.011719-.175781-.015624-.351562-.085937-.511719.015625-.429687-.015625-.859375-.085937-1.28125 3.976562-1.988281 7.796874-4.269531 11.433593-6.828125l24.492188 24.40625c-10.871094 8.371094-23.035157 14.910156-36.011719 19.371094.085938-.511719.085938-1.023438.171875-1.535156zm0 0" fill="#f85b44"/><path d="m443.160156 316.566406c-6.925781 9.074219-15.050781 17.167969-24.148437 24.0625l-24.492188-24.40625c9.515625-6.4375 17.710938-14.636718 24.152344-24.148437zm0 0" fill="#f6f6f6"/><path d="m468.335938 256.066406c-2.964844 22.015625-11.644532 42.875-25.175782 60.5l-24.488281-24.492187c7.539063-10.792969 12.6875-23.070313 15.101563-36.007813zm0 0" fill="#d13d34"/><path d="m443.757812 221.929688h-9.984374c-2.347657-12.972657-7.46875-25.285157-15.015626-36.09375l9.640626-9.644532c8.039062 14.105469 13.257812 29.640625 15.359374 45.738282zm0 0" fill="#f85b44"/><path d="m443.84375 256.066406c-2.171875 16.09375-7.414062 31.621094-15.445312 45.738282l-9.726563-9.730469c7.539063-10.792969 12.6875-23.070313 15.101563-36.007813zm0 0" fill="#f85b44"/><path d="m443.160156 161.34375-24.402344 24.492188c-6.433593-9.492188-14.597656-17.683594-24.066406-24.148438l24.40625-24.40625c9.050782 6.917969 17.144532 15.011719 24.0625 24.0625zm0 0" fill="#f6f6f6"/><path d="m419.097656 137.28125-24.40625 24.40625h-.085937c-10.808594-7.550781-23.121094-12.671875-36.09375-15.019531v-34.476563c22.046875 2.898438 42.945312 11.550782 60.585937 25.089844zm0 0" fill="#f85b44"/><path d="m196.378906 136.597656c.023438 23.488282-13.742187 44.804688-35.160156 54.441406-.410156.234376-.835938.433594-1.277344.597657-.34375.171875-.683594.257812-1.027344.429687-.167968.082032-.339843.082032-.511718.167969-.167969.085937-.082032.085937-.167969.085937-24.414063 9.464844-52.144531 1.925782-68.40625-18.59375-16.261719-20.519531-17.265625-49.238281-2.476563-70.84375 14.789063-21.605468 41.925782-31.058593 66.941407-23.324218 25.011719 7.734375 42.074219 30.855468 42.085937 57.039062zm0 0" fill="#00b7f6"/><path d="m401.175781 238.996094c.003907 19.730468-9.734375 38.191406-26.023437 49.324218v.085938h-.085938c-1.707031-4.863281-3.585937-9.644531-5.71875-14.25-.078125-.246094-.195312-.472656-.339844-.683594-.429687-.9375-.855468-1.878906-1.195312-2.816406 0-.085938-.085938-.171875-.171875-.253906-.277344-.460938-.507813-.945313-.683594-1.453125-.316406-.492188-.601562-1.003907-.851562-1.535157 0-.085937-.085938-.085937-.085938-.171874l-.765625-1.535157c-.855468-1.621093-1.707031-3.242187-2.648437-4.777343-1.195313-2.132813-2.472657-4.183594-3.753907-6.230469-.046874-.046875-.074218-.105469-.085937-.171875l-.167969-.167969c-.007812-.066406-.039062-.128906-.085937-.171875-.007813-.066406-.039063-.125-.085938-.171875-.257812-.425781-.597656-.851563-.855469-1.363281-.59375-.855469-1.191406-1.792969-1.789062-2.648438-.597656-.851562-1.023438-1.449218-1.539062-2.214844-.425782-.597656-.851563-1.109374-1.277344-1.707031l-.511719-.769531c-.085937-.171875-.257813-.257812-.34375-.425781-.085937-.171875-.253906-.34375-.339844-.511719-.609375-.9375-1.292969-1.824219-2.046875-2.648438l-.769531-1.023437c-.09375-.15625-.207031-.300781-.339844-.425781l-.085937-.085938-.257813-.253906c-.085937-.085938-.167969-.257812-.339843-.257812v-.085938l-.511719-.765625c-.257813-.363281-.542969-.707031-.855469-1.023437-.152344-.265626-.351562-.5-.597656-.683594-.125-.28125-.332032-.519532-.59375-.683594-.113282-.21875-.257813-.417969-.429688-.597656l-.253906-.253906c-.34375-.429688-.769531-.855469-1.109375-1.28125-.183594-.269532-.414063-.5-.683594-.683594-.265625-.433594-.578125-.835938-.9375-1.195313h-.085937l-.9375-1.023437c0-.085938-.085938-.167969-.257813-.253906-.511719-.597657-1.109375-1.28125-1.707031-1.878907l-.339844-.339843c-.683594-.683594-1.367187-1.453126-2.050781-2.050782-.238281-.324218-.527344-.613281-.851563-.851562 0-.046875-.039062-.085938-.085937-.085938-.269531-.355468-.582031-.667968-.9375-.9375-.425781-.425781-.9375-.9375-1.449219-1.367187-.152344-.164063-.324218-.308594-.515625-.425781-.082031-.085938-.082031-.171876-.167969-.171876-.085937 0 0-.167968-.085937-.082031 0-.171875-.085937-.085937-.085937-.085937l-.171876-.171875c-.082031-.171875-.167968-.171875-.253906-.257813-.683594-.59375-1.28125-1.109375-1.878906-1.703125-.636719-.648437-1.324219-1.246093-2.046875-1.792969-.125-.191406-.300781-.339843-.511719-.425781-.234375-.253906-.492187-.480469-.769531-.683593-.210937-.191407-.4375-.363282-.683594-.511719l-.425781-.425781c-.253906-.171876-.511719-.429688-.765625-.597657-.085937-.085937-.257813-.257812-.34375-.257812l-.085937-.085938c-.082032-.167969-.082032-.167969-.167969-.167969h-.085938c-.039062-.191406-.164062-.351562-.339843-.429687-.214844-.191406-.441407-.359375-.683594-.511719h-.085938c-.464844-.394531-.945312-.765625-1.449218-1.109375-.234376-.25-.492188-.480469-.769532-.683593-.234375-.222657-.492187-.421876-.769531-.59375h-.085937c-.425782-.429688-.9375-.769532-1.449219-1.195313h-.085938c-.40625-.339844-.832031-.65625-1.277343-.941406-.683594-.511719-1.367188-1.023438-2.050782-1.449219-.40625-.3125-.832031-.597656-1.277344-.851562-.058593-.058594-.117187-.117188-.171874-.171876-.167969-.164062-.371094-.28125-.597657-.34375l-.171875-.167968h-.085937v-.085938h-.082031c-.023438 0-.046876-.007812-.0625-.023437-.015626-.019531-.023438-.039063-.023438-.0625h-.085938v-.085938h-.085937v-.085937h-.085937l-.167969-.167969h-.085938c-.085937-.085937-.085937-.085937-.171875-.085937-.148437-.167969-.320312-.3125-.511718-.425782h-.085938c-.121094-.140625-.265625-.257812-.425781-.34375-.257813-.167968-.597657-.339844-.855469-.511718-.242188-.230469-.53125-.40625-.851562-.511719-.5-.402344-1.042969-.746094-1.621094-1.023438-.199219-.203125-.429688-.378906-.683594-.511719h-.171875c-.382813-.234374-.75-.492187-1.109375-.769531-.386719-.195312-.757812-.421875-1.109375-.679687-.300781-.238282-.648437-.414063-1.023437-.515625-.242188-.230469-.535157-.40625-.851563-.511719-1.195313-.765625-2.304687-1.363281-3.5-2.046875-.425781-.253906-.851563-.425781-1.277344-.683594 16.726563-17.921875 42.71875-23.78125 65.519531-14.773437 22.800782 9.003906 37.769532 31.046875 37.730469 55.5625zm0 0" fill="#f85b44"/><path d="m221.976562 512.066406c84.601563-.152344 156.34375-62.222656 168.660157-145.921875 47.929687-18.542969 81.371093-62.441406 86.515625-113.570312 5.148437-51.128907-18.875-100.8125-62.144532-128.535157-43.269531-27.71875-98.445312-28.773437-142.742187-2.722656-7.257813-64.671875-59.148437-115.234375-123.984375-120.808594-64.839844-5.578124-124.601562 35.382813-142.789062 97.867188-18.191407 62.484375 10.246093 129.121094 67.945312 159.21875-29.933594 52.800781-29.523438 117.539062 1.074219 169.957031 30.601562 52.421875 86.769531 84.613281 147.464843 84.515625zm-170.664062-375.46875c0-47.128906 38.203125-85.332031 85.332031-85.332031 47.128907 0 85.332031 38.203125 85.332031 85.332031.023438 11.835938-2.457031 23.542969-7.277343 34.355469-2.84375.121094-5.660157.316406-8.472657.582031-.914062.074219-1.835937.144532-2.75.246094-3.089843.328125-6.15625.75-9.207031 1.261719 15.902344-25.160157 13.65625-57.726563-5.546875-80.464844-19.203125-22.742187-50.933594-30.410156-78.398437-18.945313-27.46875 11.464844-44.335938 39.410157-41.675781 69.058594 2.660156 29.644532 24.230468 54.144532 53.300781 60.535156-1.425781 1.039063-2.867188 2.039063-4.265625 3.121094-.214844.164063-.410156.34375-.613282.503906-.972656.761719-1.914062 1.570313-2.859374 2.347657-.460938.375-.914063.742187-1.359376 1.117187-1.765624 1.476563-3.496093 2.980469-5.203124 4.523438-.53125.488281-1.117188.914062-1.648438 1.398437-33.011719-12.597656-54.785156-44.304687-54.6875-79.640625zm-31.335938 25.601563h17.519532c2.375 9.285156 6.054687 18.191406 10.921875 26.453125l-12.339844 12.3125c-7.617187-11.867188-13.066406-24.996094-16.101563-38.765625zm16.152344-89.917969 12.398438 12.410156c-4.835938 8.214844-8.496094 17.070313-10.871094 26.304688h-17.644531c3.027343-13.757813 8.484375-26.871094 16.117187-38.714844zm-1.449218 55.785156c-.238282 2.824219-.4375 5.648438-.4375 8.53125 0 2.882813.128906 5.71875.359374 8.535156h-17.117187c-.195313-2.828124-.308594-5.675781-.308594-8.535156s.230469-5.699218.4375-8.53125zm50.054687-79.582031-12.40625-12.402344c11.84375-7.628906 24.953125-13.089843 38.714844-16.117187v17.605468c-9.238281 2.386719-18.09375 6.058594-26.308594 10.914063zm77.507813-10.914063v-17.597656c13.773437 3.019532 26.898437 8.457032 38.769531 16.058594l-12.460938 12.453125c-8.214843-4.855469-17.070312-8.527344-26.308593-10.914063zm91.164062 73.425782h-17.734375c-2.386719-9.234375-6.058594-18.09375-10.914063-26.304688l12.460938-12.46875c7.675781 11.847656 13.160156 24.984375 16.1875 38.773438zm4.828125 42.582031c.5625-.554687 1.085937-1.152344 1.65625-1.707031 1.125-1.058594 2.363281-1.96875 3.53125-2.976563l12.007813 11.996094c-5.140626 4.398437-9.839844 9.292969-14.019532 14.609375-6.207031-1.492188-12.496094-2.628906-18.832031-3.410156 2.0625-3.039063 4.351563-5.976563 6.699219-8.792969.425781-.519531.800781-1.097656 1.234375-1.609375 2.425781-2.835938 5.042969-5.464844 7.722656-8.109375zm108.808594-13.566406v-17.648438c13.761719 3.03125 26.871093 8.488281 38.714843 16.121094l-12.40625 12.398437c-8.214843-4.839843-17.070312-8.5-26.308593-10.871093zm59.734375 98.984375c.078125 28.152344-13.832032 54.503906-37.121094 70.316406-.109375-.554688-.28125-1.074219-.390625-1.628906-.207031-1.023438-.488281-2.015625-.710937-3.03125-.980469-4.503906-2.097657-8.949219-3.410157-13.3125 22.089844-18.375 30.289063-48.628906 20.5-75.648438-9.789062-27.015625-35.464843-44.996094-64.199219-44.960937-16.664062-.050781-32.753906 6.074219-45.167968 17.1875-1.9375-.929688-3.867188-1.886719-5.84375-2.738281-.785156-.351563-1.539063-.769532-2.339844-1.101563s-1.707031-.613281-2.558594-.957031c-1.605468-.648438-3.246094-1.195313-4.875-1.792969-.484375-.179687-.953125-.398437-1.449218-.570313 23.90625-25.585937 61.03125-33.957031 93.601562-21.101562 32.574219 12.859375 53.976562 44.324219 53.964844 79.339844zm31.300781-25.597656h-17.605469c-2.386718-9.238282-6.058594-18.09375-10.914062-26.308594l12.398437-12.40625c7.632813 11.84375 13.09375 24.953125 16.121094 38.714844zm-16.058594 89.964843-12.359375-12.3125c4.871094-8.257812 8.546875-17.164062 10.914063-26.453125h17.554687c-3.03125 13.773438-8.488281 26.902344-16.109375 38.765625zm1.441407-55.832031c.230468-2.824219.382812-5.667969.382812-8.535156 0-2.867188-.195312-5.707032-.433594-8.53125h17.066406c.203126 2.832031.433594 5.648437.433594 8.53125 0 2.886718-.101562 5.710937-.308594 8.535156zm-96.425782 182.722656-12.171875-12.175781c10.484375-15.394531 17.683594-32.78125 21.15625-51.082031h17.246094c-3.839844 22.800781-12.8125 44.433594-26.230469 63.257812zm-48.378906 24.03125 12.179688 12.167969c-18.828126 13.421875-40.457032 22.390625-63.257813 26.230469v-17.246094c18.296875-3.46875 35.683594-10.671875 51.078125-21.152344zm-76.679688 6.578125c-65.980468 0-119.464843-53.484375-119.464843-119.464843 0-65.980469 53.484375-119.46875 119.464843-119.46875 65.980469 0 119.46875 53.488281 119.46875 119.46875-.070312 65.949218-53.519531 119.394531-119.46875 119.464843zm-25.597656 14.574219v17.246094c-22.800781-3.839844-44.433594-12.808594-63.257812-26.230469l12.175781-12.167969c15.394531 10.480469 32.78125 17.683594 51.082031 21.152344zm-125.6875-108.441406h17.246094c3.46875 18.300781 10.671875 35.6875 21.152344 51.082031l-12.167969 12.175781c-13.421875-18.824218-22.390625-40.457031-26.230469-63.257812zm241.832032-170.210938c8.496093-5.882812 18.589843-9.019531 28.921874-8.988281 20.40625.011719 38.859376 12.140625 46.964844 30.871094 8.101563 18.730469 4.308594 40.488281-9.660156 55.367187-10.152344-23.699218-25.574219-44.773437-45.097656-61.617187l-.640625-.546875c-3.0625-2.621094-6.203125-5.121094-9.453125-7.542969l-1.066406-.761719c-3.242188-2.355468-6.539063-4.640625-9.949219-6.773437zm-167.253907 31.726563-12.175781-12.167969c.171875-.128906.332031-.265625.511719-.386719.726562-.511719 1.425781-1.089843 2.160156-1.59375l1.125-.761719c2.875-1.917968 5.863281-3.667968 8.867187-5.390624 1.117188-.640626 2.183594-1.367188 3.3125-1.972657 2.730469-1.484375 5.578126-2.746093 8.410157-4.0625 1.511719-.699219 2.988281-1.492187 4.523437-2.148437l.957032-.410156c1.519531-.632813 3.105468-1.117188 4.652343-1.707032 2.941407-1.109375 5.859375-2.277344 8.871094-3.207031l.265625-.078125c6.4375-1.917969 12.992188-3.410156 19.628906-4.464844v17.1875c-18.300781 3.472656-35.6875 10.679688-51.082031 21.164063zm68.175781-40.21875c2.261719-.128907 4.503907-.375 6.824219-.402344.582031 0 1.136719-.085937 1.707031-.085937 1.554688 0 3.0625.1875 4.609376.230468.410156 0 .851562.0625 1.21875.078125.914062 0 1.792968.179688 2.707031.230469v16.964844c-2.835938-.179688-5.648438-.4375-8.535157-.4375-2.882812 0-5.699218.257812-8.53125.4375zm34.132813 1.960937c3.292969.546875 6.59375 1.078125 9.804687 1.828125.621094.144531 1.238282.324219 1.859376.476563 2.558593.625 5 1.417968 7.484374 2.160156 2.105469.648438 4.265626 1.253906 6.304688 1.988281l1.136719.417969c13.007812 4.753906 25.304687 11.253906 36.554687 19.328125l-12.054687 12.058594c-15.398438-10.484375-32.789063-17.683594-51.089844-21.15625zm76.542969 36.925782c4.238281 3.804687 8.265625 7.84375 12.058594 12.089843l-11.949219 11.949219c-3.765625-4.273438-7.800781-8.308594-12.074219-12.074219zm22.792968 25.472656c3.726563 5.1875 7.128907 10.601562 10.1875 16.210937.503907.949219.980469 1.914063 1.46875 2.875 1.289063 2.492188 2.558594 5.003907 3.695313 7.5625 1.585937 3.601563 3.082031 7.261719 4.394531 11 .109375.316407.238282.613281.339844.929688 1.007812 2.859375 1.902344 5.769531 2.742188 8.695312.417968 1.492188.785156 2.996094 1.160156 4.503907.65625 2.636718 1.320312 5.265624 1.84375 7.953124.210937 1.109376.332031 2.261719.519531 3.414063h-17.246094c-3.472656-18.296875-10.671875-35.683594-21.15625-51.078125zm11.160157 80.210937h17.066406c.164063 2.84375.4375 5.648438.4375 8.535157 0 2.882812-.273437 5.691406-.4375 8.53125h-17.066406c.179687-2.832032.4375-5.648438.4375-8.53125 0-2.886719-.257813-5.699219-.4375-8.535157zm-221.429688-145.066406c-28.277343 0-51.199219-22.921875-51.199219-51.199219s22.921876-51.199218 51.199219-51.199218c28.277344 0 51.199219 22.921874 51.199219 51.199218-.027344 28.265625-22.933594 51.171875-51.199219 51.199219zm-24.3125 46.234375c.855469-.851562 1.707031-1.707031 2.507813-2.492188 1.582031-1.542968 3.253906-2.976562 4.898437-4.453124l12.066407 12.066406c-4.273438 3.769531-8.304688 7.800781-12.074219 12.074218l-12.101563-12.066406c1.582032-1.722656 3.082032-3.480468 4.703125-5.128906zm177.28125-83.070312-12.449219-12.441407c11.839844-7.605469 24.9375-13.039062 38.679688-16.054687v17.476562c-9.214844 2.429688-18.042969 6.140625-26.230469 11.019532zm-196.265625 106.808593c1.125-1.703125 2.292969-3.410156 3.480469-5.058593l.128906-.171876 12.167969 12.179688c-10.496094 15.390625-17.707031 32.777344-21.1875 51.078125h-17.246094c3.46875-20.691406 11.171875-40.445313 22.621094-58.027344zm-7.46875 75.09375c-.179687 2.835938-.433594 5.648438-.433594 8.535157 0 2.882812.253907 5.699218.433594 8.53125h-17.066406c-.164062-2.839844-.433594-5.648438-.433594-8.53125 0-2.886719.269532-5.691407.433594-8.535157zm21.75 110.773438 12.066406-12.066407c3.769532 4.273438 7.804688 8.304688 12.074219 12.074219l-12.03125 12.101563c-4.253906-3.8125-8.296875-7.855469-12.109375-12.109375zm105.816406 50.925781v-17.066406c2.832032.179687 5.648438.433594 8.53125.433594 2.886719 0 5.699219-.253907 8.535157-.433594v17.066406c-2.84375.164062-5.648438.433594-8.535157.433594-2.882812 0-5.691406-.269532-8.53125-.433594zm110.769532-38.816406-12.066406-12.066406c4.273437-3.769532 8.304687-7.804688 12.074218-12.074219l12.101563 12.03125c-3.808594 4.253906-7.851563 8.296875-12.109375 12.109375zm68.429687-114.347656c0-4.558594-.28125-9.039063-.625-13.5.453125-.257813.921875-.496094 1.367188-.75l12.371093 12.371093c-4.246093 2.730469-8.660156 5.195313-13.214843 7.375.101562-1.871093.101562-3.695312.101562-5.496093zm26.949219-12.1875-12.09375-12.089844c4.371094-3.65625 8.425781-7.671875 12.125-12.007813l12.050781 12.042969c-3.738281 4.296875-7.777343 8.328125-12.082031 12.054688zm12.03125-168.328126-12.058594 12.066407c-3.683594-4.351563-7.722656-8.390625-12.074218-12.074219l12.066406-12.058594c4.304687 3.726563 8.339844 7.761719 12.066406 12.066406zm-81.648438-40.917968v17.066406c-2.824218-.238281-5.648437-.433594-8.53125-.433594-2.886718 0-5.703124.28125-8.535156.519532v-17.066407c2.84375-.203125 5.65625-.527343 8.535156-.527343 2.875 0 5.699219.238281 8.53125.441406zm-111.855468 29.929687c.597656-4.410156.90625-8.851562.921875-13.296875 0-2.882812-.195313-5.707031-.433594-8.53125h17.132813c.105468 1.464844.300781 2.898438.34375 4.375-6.511719 5.253906-12.527344 11.09375-17.964844 17.453125zm-11.195313-91.511719-12.160156 12.167969c-3.683594-4.351562-7.722656-8.390625-12.074219-12.074219l12.09375-12.085937c4.324219 3.707031 8.378906 7.714844 12.140625 11.992187zm-81.75-40.824218v17.066406c-2.824219-.230469-5.648437-.425781-8.53125-.425781-2.886719 0-5.710937.195312-8.535156.433593v-17.066406c2.835937-.203125 5.648437-.433594 8.535156-.433594 2.882813 0 5.699219.21875 8.53125.425782zm-86.644531 28.859375 12.066406 12.058593c-4.351562 3.683594-8.390625 7.722657-12.078125 12.074219l-12.054687-12.066406c3.726562-4.308594 7.757812-8.339844 12.066406-12.066406zm-12.117188 168.34375 11.996094-12.003907c3.679688 4.351563 7.71875 8.390626 12.074219 12.066407l-11.996094 11.996093c-4.3125-3.722656-8.347656-7.753906-12.074219-12.058593zm36.1875 28.347656c-3.53125-1.816406-6.96875-3.808594-10.300781-5.972656l12.347657-12.347657c2.84375 1.707032 5.789062 3.175782 8.800781 4.574219-.445313.511719-.855469 1.042969-1.316407 1.554688-.902343 1.058593-1.816406 2.097656-2.695312 3.171875-2.355469 2.929687-4.652344 5.921875-6.835938 9.019531zm0 0"/><path d="m315.648438 352.046875c-2.214844-.460937-4.523438-.023437-6.417969 1.214844-1.894531 1.242187-3.214844 3.183593-3.675781 5.398437-3.28125 15.816406-10.976563 30.382813-22.1875 42.011719-3.273438 3.394531-3.171876 8.796875.226562 12.070313 3.394531 3.269531 8.796875 3.167968 12.070312-.226563 13.429688-13.9375 22.644532-31.394531 26.570313-50.347656.472656-2.214844.039063-4.527344-1.195313-6.425781-1.234374-1.898438-3.175781-3.226563-5.390624-3.695313zm0 0"/><path d="m183.191406 265.367188c12.003906-6.152344 25.300782-9.34375 38.785156-9.300782 4.714844 0 8.535157-3.824218 8.535157-8.535156 0-4.714844-3.820313-8.535156-8.535157-8.535156-16.179687.007812-32.128906 3.835937-46.546874 11.171875-2.714844 1.386719-4.484376 4.117187-4.640626 7.160156-.15625 3.046875 1.324219 5.941406 3.882813 7.601563 2.558594 1.65625 5.804687 1.824218 8.519531.4375zm0 0"/><path d="m147.960938 283.054688c-1.898438-1.234376-4.207032-1.667969-6.421876-1.203126-2.214843.464844-4.152343 1.792969-5.390624 3.6875-3.828126 5.859376-7.042969 12.101563-9.589844 18.621094-.835938 2.113282-.796875 4.472656.113281 6.554688.910156 2.082031 2.613281 3.714844 4.734375 4.535156.992188.371094 2.042969.558594 3.105469.546875 3.515625.003906 6.671875-2.152344 7.953125-5.425781 2.121094-5.429688 4.792968-10.628906 7.976562-15.515625 2.570313-3.945313 1.460938-9.226563-2.480468-11.800781zm0 0"/><path d="m223.265625 345.765625c-19.515625-2.992187-26.886719-5.441406-26.886719-19.464844 0-9.957031 14-17.96875 25.597656-17.96875 10.222657-1.097656 20.300782 3.082031 26.746094 11.09375 2.375 3.976563 7.492188 5.332031 11.527344 3.050781 4.035156-2.285156 5.507812-7.371093 3.320312-11.457031-7.5625-11.042969-19.71875-18.070312-33.058593-19.113281v-10.242188c0-4.710937-3.820313-8.53125-8.535157-8.53125-4.710937 0-8.53125 3.820313-8.53125 8.53125v10.453126c-17.496093 3.320312-34.132812 16.425781-34.132812 34.183593 0 29.996094 24.898438 33.8125 41.375 36.328125 19.515625 2.996094 26.890625 5.445313 26.890625 19.464844 0 6.375-11.1875 13.789062-25.601563 13.789062-10.394531-.445312-20.46875-3.742187-29.113281-9.53125-3.8125-2.769531-9.152343-1.925781-11.921875 1.886719-2.773437 3.8125-1.925781 9.148438 1.886719 11.921875 9.199219 6.21875 19.648437 10.355469 30.617187 12.117188v14.453125c0 4.714843 3.820313 8.535156 8.53125 8.535156 4.714844 0 8.535157-3.820313 8.535157-8.535156v-14.402344c19.445312-2.867187 34.132812-15.359375 34.132812-30.234375 0-29.996094-24.902343-33.808594-41.378906-36.328125zm0 0"/></svg>