<svg height="512pt" viewBox="0 0 512.00001 512" width="512pt" xmlns="http://www.w3.org/2000/svg"><path d="m55.628906 256c0 57.386719 24.125 109.160156 62.757813 145.628906l-34.066407 34.0625c-47.285156-45.28125-76.78125-109.082031-76.78125-179.691406zm0 0" fill="#95adc0"/><path d="m393.613281 401.628906 34.066407 34.066406c-44.644532 42.558594-105.078126 68.765626-171.679688 68.765626v-48.089844c53.21875 0 101.707031-20.839844 137.613281-54.742188zm0 0" fill="#95adc0"/><path d="m504.460938 256h-48.089844c0-57.386719-24.125-109.164062-62.757813-145.628906l34.066407-34.066406c47.285156 45.285156 76.78125 109.085937 76.78125 179.695312zm0 0" fill="#95adc0"/><path d="m256 7.539062v48.089844c-53.21875 0-101.710938 20.839844-137.617188 54.742188l-34.0625-34.066406c44.644532-42.558594 105.074219-68.765626 171.679688-68.765626zm0 0" fill="#95adc0"/><path d="m256 456.371094v48.089844c-66.605469 0-127.035156-26.207032-171.679688-68.765626l34.0625-34.066406c35.910157 33.902344 84.398438 54.742188 137.617188 54.742188zm0 0" fill="#df412d"/><path d="m456.371094 256h48.089844c0 70.609375-29.496094 134.410156-76.78125 179.691406l-34.0625-34.0625c38.628906-36.464844 62.753906-88.242187 62.753906-145.628906zm0 0" fill="#df412d"/><path d="m427.679688 76.304688-34.066407 34.066406c-35.90625-33.90625-84.394531-54.742188-137.613281-54.742188v-48.089844c66.605469 0 127.035156 26.207032 171.679688 68.765626zm0 0" fill="#df412d"/><path d="m118.386719 110.371094c-38.632813 36.464844-62.757813 88.242187-62.757813 145.628906h-48.089844c0-70.613281 29.496094-134.410156 76.78125-179.695312zm0 0" fill="#df412d"/><path d="m393.613281 110.371094c38.632813 36.464844 62.757813 88.242187 62.757813 145.628906s-24.125 109.160156-62.757813 145.628906c-35.90625 33.902344-84.394531 54.742188-137.613281 54.742188s-101.710938-20.839844-137.617188-54.742188c-38.628906-36.46875-62.753906-88.242187-62.753906-145.628906s24.125-109.164062 62.753906-145.628906c35.90625-33.90625 84.398438-54.742188 137.617188-54.742188s101.707031 20.839844 137.613281 54.742188zm0 0" fill="#fd6149"/><path d="m151.808594 256c0-57.386719 24.121094-109.164062 62.753906-145.632812 24.730469-23.347657 55.425781-40.496094 89.527344-48.910157-15.414063-3.804687-31.523438-5.828125-48.089844-5.828125-53.21875 0-101.710938 20.835938-137.617188 54.738282-38.628906 36.46875-62.753906 88.246093-62.753906 145.632812s24.125 109.160156 62.753906 145.628906c35.90625 33.902344 84.398438 54.742188 137.617188 54.742188 16.566406 0 32.675781-2.023438 48.089844-5.828125-34.101563-8.417969-64.796875-25.566407-89.527344-48.914063-38.632812-36.464844-62.753906-88.242187-62.753906-145.628906zm0 0" fill="#df412d"/><path d="m280.042969 215.925781c8.820312 0 16.03125 7.210938 16.03125 16.03125 0 8.816407-7.210938 16.027344-16.03125 16.027344-8.816407 0-16.027344-7.210937-16.027344-16.027344 0-8.820312 7.210937-16.03125 16.027344-16.03125zm0 0" fill="#aac4da"/><path d="m231.957031 215.925781c8.816407 0 16.027344 7.210938 16.027344 16.03125 0 8.816407-7.210937 16.027344-16.027344 16.027344-8.820312 0-16.03125-7.210937-16.03125-16.027344 0-8.820312 7.210938-16.03125 16.03125-16.03125zm0 0" fill="#aac4da"/><path d="m247.984375 231.957031c0-8.820312-7.210937-16.03125-16.027344-16.03125-8.820312 0-16.03125 7.210938-16.03125 16.03125 0 8.816407 7.210938 16.027344 16.03125 16.027344 8.816407 0 16.027344-7.210937 16.027344-16.027344zm16.03125 0c0 8.816407 7.210937 16.027344 16.027344 16.027344 8.820312 0 16.03125-7.210937 16.03125-16.027344 0-8.820312-7.210938-16.03125-16.03125-16.03125-8.816407 0-16.027344 7.210938-16.027344 16.03125zm64.117187 0c0 28.289063-16.351562 52.734375-40.074218 64.519531v39.671876h-64.117188v-39.671876c-23.722656-11.785156-40.074218-36.230468-40.074218-64.519531 0-39.835937 32.300781-72.136719 72.132812-72.136719 39.835938 0 72.132812 32.300782 72.132812 72.136719zm0 0" fill="#d9eef7"/><path d="m111.257812 256h-15.078124c0-88.125 71.695312-159.820312 159.820312-159.820312v15.078124c-79.8125 0-144.742188 64.929688-144.742188 144.742188zm0 0" fill="#fff"/><path d="m400.742188 223.941406h15.078124v16.027344h-15.078124zm0 0" fill="#fff"/><g fill="#231f20"><path d="m490.710938 153.640625c-13.636719-31.25-33.089844-59.097656-57.828126-82.789063-47.925781-45.691406-110.746093-70.851562-176.882812-70.851562-31.210938 0-61.714844 5.558594-90.660156 16.515625l5.339844 14.101563c24.898437-9.425782 51.03125-14.589844 77.78125-15.410157v33.03125c-48.078126 1.722657-93.671876 19.886719-129.824219 51.722657l-23.429688-23.429688c17.21875-15.410156 36.445313-28.230469 57.261719-38.144531l-6.484375-13.613281c-24.578125 11.707031-47.074219 27.210937-66.878906 46.089843-24.726563 23.675781-44.179688 51.527344-57.816407 82.777344-14.128906 32.363281-21.289062 66.800781-21.289062 102.359375s7.160156 69.996094 21.289062 102.359375c13.636719 31.25 33.089844 59.097656 57.832032 82.789063 15.953125 15.207031 33.785156 28.3125 53.003906 38.949218l7.300781-13.191406c-15.847656-8.773438-30.699219-19.328125-44.226562-31.429688l23.4375-23.4375c36.148437 31.835938 81.742187 50 129.824219 51.722657v33.035156c-32.574219-.988281-63.992188-8.371094-93.492188-22.011719l-6.328125 13.6875c33.769531 15.613282 69.890625 23.527344 107.359375 23.527344 66.136719 0 128.957031-25.160156 176.894531-70.863281 24.726563-23.679688 44.179688-51.53125 57.816407-82.777344 14.128906-32.363281 21.289062-66.804687 21.289062-102.359375 0-35.558594-7.164062-69.996094-21.289062-102.359375zm6.082031 94.820313h-33.03125c-.929688-26.429688-6.753907-52.015626-17.378907-76.15625-10.195312-23.167969-24.335937-43.976563-42.058593-61.980469l23.382812-23.382813c20.796875 21.136719 37.332031 45.566406 49.1875 72.730469 12.289063 28.15625 18.960938 57.992187 19.898438 88.789063zm-103.429688 163.582031 23.425781 23.425781c-42.460937 38.003906-96.351562 59.570312-153.25 61.324219v-33.03125c48.082032-1.722657 93.671876-19.886719 129.824219-51.71875zm-4.925781-15.894531c-35.980469 33.972656-83.015625 52.683593-132.4375 52.683593-49.425781 0-96.457031-18.707031-132.441406-52.683593-18.867188-17.8125-33.71875-38.847657-44.140625-62.527344-10.78125-24.503906-16.25-50.617188-16.25-77.621094s5.46875-53.117188 16.25-77.621094c10.421875-23.679687 25.273437-44.714844 44.144531-62.527344 35.980469-33.972656 83.015625-52.683593 132.4375-52.683593 49.425781 0 96.457031 18.710937 132.441406 52.683593 18.867188 17.8125 33.71875 38.847657 44.140625 62.527344 10.78125 24.503906 16.25 50.617188 16.25 77.621094s-5.464843 53.117188-16.25 77.621094c-10.421875 23.679687-25.273437 44.714844-44.144531 62.527344zm4.925781-296.191407c-36.152343-31.832031-81.742187-49.996093-129.824219-51.71875v-33.03125c56.902344 1.753907 110.796876 23.324219 153.25 61.324219zm-358.253906 59.714844c11.855469-27.167969 28.394531-51.601563 49.183594-72.730469l23.386719 23.382813c-17.726563 18.003906-31.863282 38.8125-42.058594 61.980469-10.625 24.140624-16.449219 49.726562-17.382813 76.15625h-33.03125c.933594-30.796876 7.609375-60.632813 19.902344-88.789063zm-19.902344 103.867187h33.03125c.933594 26.429688 6.757813 52.015626 17.382813 76.15625 10.195312 23.167969 24.332031 43.976563 42.058594 61.980469l-23.386719 23.382813c-20.792969-21.136719-37.332031-45.566406-49.1875-72.730469-12.289063-28.15625-18.964844-57.992187-19.898438-88.789063zm461.683594 88.789063c-11.855469 27.167969-28.394531 51.601563-49.183594 72.730469l-23.386719-23.382813c17.726563-18.003906 31.867188-38.8125 42.058594-61.980469 10.625-24.140624 16.449219-49.726562 17.382813-76.15625h33.03125c-.9375 30.796876-7.609375 60.632813-19.902344 88.789063zm0 0"/><path d="m295.597656 300.996094c24.839844-14.183594 40.074219-40.222656 40.074219-69.039063 0-15.847656-4.640625-31.152343-13.425781-44.273437l-12.527344 8.390625c7.117188 10.625 10.875 23.035156 10.875 35.882812 0 24.636719-13.75 46.773438-35.886719 57.765625l-4.1875 2.078125v36.808594h-16.980469v-24.519531h-15.078124v24.519531h-16.980469v-36.808594l-4.1875-2.078125c-22.136719-10.992187-35.886719-33.128906-35.886719-57.765625 0-35.621093 28.976562-64.597656 64.59375-64.597656 15.917969 0 31.210938 5.84375 43.0625 16.453125l10.058594-11.234375c-14.621094-13.089844-33.484375-20.296875-53.121094-20.296875-43.933594 0-79.671875 35.742188-79.671875 79.675781 0 28.816407 15.234375 54.855469 40.074219 69.039063v42.691406h79.195312zm0 0"/><path d="m255.523438 231.957031c0-12.996093-10.570313-23.570312-23.566407-23.570312-12.996093 0-23.570312 10.574219-23.570312 23.570312 0 12.996094 10.574219 23.566407 23.570312 23.566407 12.996094 0 23.566407-10.570313 23.566407-23.566407zm-23.566407 8.488281c-4.683593 0-8.492187-3.808593-8.492187-8.488281 0-4.683593 3.808594-8.492187 8.492187-8.492187 4.679688 0 8.488281 3.808594 8.488281 8.492187 0 4.679688-3.808593 8.488281-8.488281 8.488281zm0 0"/><path d="m303.613281 231.957031c0-12.996093-10.574219-23.570312-23.570312-23.570312-12.992188 0-23.566407 10.574219-23.566407 23.570312 0 12.996094 10.574219 23.566407 23.566407 23.566407 12.996093 0 23.570312-10.570313 23.570312-23.566407zm-32.058593 0c0-4.683593 3.808593-8.492187 8.488281-8.492187 4.683593 0 8.492187 3.808594 8.492187 8.492187 0 4.679688-3.808594 8.488281-8.492187 8.488281-4.679688 0-8.488281-3.808593-8.488281-8.488281zm0 0"/><path d="m247.984375 264.492188h16.03125v15.078124h-16.03125zm0 0"/><path d="m256 400.742188v15.078124c88.125 0 159.820312-71.695312 159.820312-159.820312h-15.078124c0 79.8125-64.929688 144.742188-144.742188 144.742188zm0 0"/><path d="m96.179688 272.03125h15.078124v16.027344h-15.078124zm0 0"/><path d="m112.207031 288.058594h15.078125v16.03125h-15.078125zm0 0"/><path d="m272.503906 95.703125h15.078125v16.03125h-15.078125zm0 0"/><path d="m288.535156 111.734375h15.078125v16.027344h-15.078125zm0 0"/></g><path d="m224.417969 400.265625h15.078125v16.03125h-15.078125zm0 0" fill="#fff"/></svg>