<svg height="511pt" viewBox="-75 1 511 511.99998" width="511pt" xmlns="http://www.w3.org/2000/svg"><path d="m299.402344 105.929688c-2.933594-20.46875-10.980469-39.867188-23.394532-56.40625-7.109374-9.40625-15.488281-17.785157-24.894531-24.894532-16.546875-12.398437-35.941406-20.441406-56.40625-23.394531-11.710937-1.644531-23.597656-1.644531-35.308593 0-20.464844 2.953125-39.863282 10.996094-56.410157 23.394531-9.40625 7.109375-17.78125 15.488282-24.894531 24.894532-12.410156 16.539062-20.457031 35.9375-23.390625 56.40625-1.648437 11.714843-1.648437 23.597656 0 35.3125 2.933594 20.46875 10.980469 39.867187 23.390625 56.40625 7.113281 9.40625 15.488281 17.785156 24.894531 24.894531 16.546875 12.398437 35.945313 20.441406 56.410157 23.394531 11.710937 1.648438 23.597656 1.648438 35.308593 0 20.46875-2.9375 39.871094-10.980469 56.40625-23.394531 9.402344-7.089844 17.75-15.46875 24.808594-24.894531h.085937c12.414063-16.539063 20.460938-35.9375 23.394532-56.40625 1.648437-11.714844 1.648437-23.597657 0-35.3125zm0 0" fill="#ed634c"/><path d="m300.636719 123.585938c-.003907 5.90625-.417969 11.804687-1.234375 17.65625h-35.839844c2.355469-11.652344 2.355469-23.660157 0-35.3125h35.839844c.816406 5.851562 1.230468 11.75 1.234375 17.65625zm0 0" fill="#ebeced"/><path d="m299.402344 141.242188c-2.933594 20.46875-10.980469 39.867187-23.394532 56.40625h-.085937l-25.25-25.332032c6.238281-9.445312 10.613281-19.992187 12.890625-31.074218zm0 0" fill="#cd4f38"/><path d="m251.113281 222.542969c-16.535156 12.414062-35.9375 20.457031-56.40625 23.394531v-35.839844c11.082031-2.28125 21.628907-6.652344 31.074219-12.890625zm0 0" fill="#cd4f38"/><path d="m194.707031 210.097656v35.839844c-11.710937 1.648438-23.597656 1.648438-35.308593 0v-35.839844c11.652343 2.351563 23.65625 2.351563 35.308593 0zm0 0" fill="#ebeced"/><path d="m159.398438 210.097656v35.839844c-20.464844-2.953125-39.863282-10.996094-56.410157-23.394531l25.335938-25.335938c9.441406 6.238281 19.988281 10.609375 31.074219 12.890625zm0 0" fill="#cd4f38"/><path d="m128.324219 197.207031-25.335938 25.335938c-9.40625-7.109375-17.78125-15.488281-24.894531-24.894531l25.335938-25.332032c6.535156 9.886719 15.003906 18.355469 24.894531 24.890625zm0 0" fill="#ebeced"/><path d="m103.429688 172.316406-25.335938 25.332032c-12.410156-16.539063-20.457031-35.9375-23.390625-56.40625h35.839844c2.277343 11.082031 6.652343 21.628906 12.886719 31.074218zm0 0" fill="#cd4f38"/><path d="m103.429688 74.859375c-6.234376 9.441406-10.609376 19.988281-12.886719 31.070313h-35.839844c2.933594-20.46875 10.980469-39.867188 23.390625-56.40625zm0 0" fill="#cd4f38"/><path d="m128.324219 49.964844c-9.890625 6.535156-18.359375 15.003906-24.894531 24.894531l-25.335938-25.335937c7.113281-9.40625 15.488281-17.785157 24.894531-24.894532zm0 0" fill="#ebeced"/><path d="m159.398438 1.234375v35.839844c-11.085938 2.28125-21.632813 6.65625-31.074219 12.890625l-25.335938-25.335938c16.546875-12.398437 35.945313-20.441406 56.410157-23.394531zm0 0" fill="#cd4f38"/><path d="m251.113281 24.628906-25.332031 25.335938c-9.445312-6.234375-19.992188-10.609375-31.074219-12.890625v-35.839844c20.464844 2.953125 39.859375 10.996094 56.40625 23.394531zm0 0" fill="#cd4f38"/><path d="m276.007812 49.523438-25.335937 25.335937c-6.535156-9.890625-15-18.359375-24.890625-24.894531l25.332031-25.335938c9.40625 7.109375 17.785157 15.488282 24.894531 24.894532zm0 0" fill="#ebeced"/><path d="m299.402344 105.929688h-35.839844c-2.277344-11.082032-6.652344-21.628907-12.890625-31.070313l25.335937-25.335937c12.414063 16.539062 20.460938 35.9375 23.394532 56.40625zm0 0" fill="#cd4f38"/><path d="m265.328125 123.585938c-.066406 46.84375-36.835937 85.410156-83.621094 87.710937-46.785156 2.300781-87.164062-32.472656-91.824219-79.082031-4.660156-46.609375 28.03125-88.691406 74.347657-95.699219 46.3125-7.011719 89.992187 23.515625 99.332031 69.414063 1.175781 5.8125 1.769531 11.726562 1.765625 17.65625zm0 0" fill="#ed634c"/><path d="m147.78125 88.277344c-3.898438.003906-7.335938-2.542969-8.464844-6.269532-1.128906-3.730468.320313-7.757812 3.5625-9.914062 10.121094-6.738281 22.015625-10.320312 34.171875-10.300781 4.875 0 8.828125 3.953125 8.828125 8.828125s-3.953125 8.828125-8.828125 8.828125c-8.679687-.015625-17.171875 2.542969-24.398437 7.351562-1.441406.964844-3.136719 1.476563-4.871094 1.476563zm0 0" fill="#fe9189"/><path d="m124.808594 141.242188c-4.304688-.003907-7.980469-3.117188-8.695313-7.363282-.566406-3.402344-.855469-6.84375-.855469-10.292968-.003906-7.019532 1.191407-13.984376 3.53125-20.601563 1.628907-4.597656 6.675782-7.007813 11.273438-5.378906 4.597656 1.628906 7.003906 6.675781 5.375 11.273437-2.480469 7.078125-3.132812 14.671875-1.898438 22.070313.808594 4.804687-2.429687 9.359375-7.238281 10.167969-.492187.082031-.992187.125-1.492187.125zm0 0" fill="#fe9189"/><path d="m203.535156 178.316406c-3.988281-.007812-7.480468-2.6875-8.511718-6.539062-1.03125-3.855469.648437-7.921875 4.097656-9.921875 6.710937-3.894531 12.289062-9.480469 16.171875-16.199219 2.511719-4.058594 7.789062-5.386719 11.921875-3 4.132812 2.386719 5.621094 7.625 3.359375 11.828125-5.4375 9.386719-13.238281 17.183594-22.625 22.625-1.339844.78125-2.863281 1.199219-4.414063 1.207031zm0 0" fill="#fe9189"/><path d="m35.808594 459.035156v52.964844h-17.652344c-9.738281-.027344-17.628906-7.917969-17.65625-17.65625v-17.652344c.027344-9.742187 7.917969-17.628906 17.65625-17.65625zm0 0" fill="#5dc382"/><path d="m71.121094 459.035156v52.964844h-35.3125v-52.964844zm0 0" fill="#ebeced"/><path d="m106.429688 459.035156v52.964844h-35.308594v-52.964844zm0 0" fill="#5dc382"/><path d="m141.742188 459.035156v52.964844h-35.3125v-52.964844zm0 0" fill="#ebeced"/><path d="m177.050781 459.035156v52.964844h-35.308593v-52.964844zm0 0" fill="#5dc382"/><path d="m212.363281 459.035156v52.964844h-35.3125v-52.964844zm0 0" fill="#ebeced"/><path d="m247.671875 459.035156v52.964844h-35.308594v-52.964844zm0 0" fill="#5dc382"/><path d="m282.984375 459.035156v52.964844h-35.3125v-52.964844zm0 0" fill="#ebeced"/><path d="m318.292969 476.691406v17.652344c-.027344 9.738281-7.917969 17.628906-17.65625 17.65625h-17.652344v-52.964844h17.652344c9.738281.027344 17.628906 7.914063 17.65625 17.65625zm0 0" fill="#5dc382"/><path d="m362.429688 423.722656v17.65625c-.027344 9.738282-7.914063 17.625-17.652344 17.65625h-17.65625v-52.964844h17.65625c9.738281.027344 17.625 7.914063 17.652344 17.652344zm0 0" fill="#cd4f38"/><path d="m327.121094 406.070312v52.964844h-35.3125v-52.964844zm0 0" fill="#ebeced"/><path d="m291.808594 406.070312v52.964844h-35.308594v-52.964844zm0 0" fill="#cd4f38"/><path d="m256.5 406.070312v52.964844h-35.308594v-52.964844zm0 0" fill="#ebeced"/><path d="m221.191406 406.070312v52.964844h-35.3125v-52.964844zm0 0" fill="#cd4f38"/><path d="m185.878906 406.070312v52.964844h-35.308594v-52.964844zm0 0" fill="#ebeced"/><path d="m150.570312 406.070312v52.964844h-35.3125v-52.964844zm0 0" fill="#cd4f38"/><path d="m79.949219 406.070312v52.964844h-17.65625c-9.738281-.03125-17.625-7.917968-17.65625-17.65625v-17.65625c.03125-9.738281 7.917969-17.625 17.65625-17.652344zm0 0" fill="#cd4f38"/><path d="m115.257812 406.070312v52.964844h-35.308593v-52.964844zm0 0" fill="#ebeced"/><path d="m35.808594 353.101562v52.96875h-17.652344c-9.738281-.03125-17.628906-7.917968-17.65625-17.65625v-17.65625c.027344-9.738281 7.917969-17.625 17.65625-17.65625zm0 0" fill="#5dc382"/><path d="m71.121094 353.101562v52.96875h-35.3125v-52.96875zm0 0" fill="#ebeced"/><path d="m106.429688 353.101562v52.96875h-35.308594v-52.96875zm0 0" fill="#5dc382"/><path d="m141.742188 353.101562v52.96875h-35.3125v-52.96875zm0 0" fill="#ebeced"/><path d="m318.292969 370.757812v17.65625c-.027344 9.738282-7.917969 17.625-17.65625 17.65625h-17.652344v-52.96875h17.652344c9.738281.03125 17.628906 7.917969 17.65625 17.65625zm0 0" fill="#5dc382"/><path d="m177.050781 353.101562v52.96875h-35.308593v-52.96875zm0 0" fill="#5dc382"/><path d="m212.363281 353.101562v52.96875h-35.3125v-52.96875zm0 0" fill="#ebeced"/><path d="m247.671875 353.101562v52.96875h-35.308594v-52.96875zm0 0" fill="#5dc382"/><path d="m282.984375 353.101562v52.96875h-35.3125v-52.96875zm0 0" fill="#ebeced"/><path d="m362.429688 317.792969v17.65625c-.027344 9.738281-7.914063 17.625-17.652344 17.652343h-17.65625v-52.964843h17.65625c9.738281.03125 17.625 7.917969 17.652344 17.65625zm0 0" fill="#cd4f38"/><path d="m327.121094 300.136719v52.964843h-35.3125v-52.964843zm0 0" fill="#ebeced"/><path d="m291.808594 300.136719v52.964843h-35.308594v-52.964843zm0 0" fill="#cd4f38"/><path d="m256.5 300.136719v52.964843h-35.308594v-52.964843zm0 0" fill="#ebeced"/><path d="m221.191406 300.136719v52.964843h-35.3125v-52.964843zm0 0" fill="#cd4f38"/><path d="m185.878906 300.136719v52.964843h-35.308594v-52.964843zm0 0" fill="#ebeced"/><path d="m150.570312 300.136719v52.964843h-35.3125v-52.964843zm0 0" fill="#cd4f38"/><path d="m115.257812 300.136719v52.964843h-35.308593v-52.964843zm0 0" fill="#ebeced"/><path d="m79.949219 300.136719v52.964843h-17.65625c-9.738281-.027343-17.625-7.914062-17.65625-17.652343v-17.65625c.03125-9.738281 7.917969-17.625 17.65625-17.65625zm0 0" fill="#cd4f38"/><path d="m35.808594 247.171875v52.964844h-17.652344c-9.738281-.027344-17.628906-7.914063-17.65625-17.652344v-17.65625c.027344-9.738281 7.917969-17.625 17.65625-17.65625zm0 0" fill="#5dc382"/><path d="m71.121094 247.171875v52.964844h-35.3125v-52.964844zm0 0" fill="#ebeced"/><path d="m106.429688 247.171875v52.964844h-35.308594v-52.964844zm0 0" fill="#5dc382"/><path d="m141.742188 247.171875v52.964844h-35.3125v-52.964844zm0 0" fill="#ebeced"/><path d="m177.050781 247.171875v52.964844h-35.308593v-52.964844zm0 0" fill="#5dc382"/><path d="m212.363281 247.171875v52.964844h-35.3125v-52.964844zm0 0" fill="#ebeced"/><path d="m247.671875 247.171875v52.964844h-35.308594v-52.964844zm0 0" fill="#5dc382"/><path d="m318.292969 264.828125v17.65625c-.027344 9.738281-7.917969 17.625-17.65625 17.652344h-17.652344v-52.964844h17.652344c9.738281.03125 17.628906 7.917969 17.65625 17.65625zm0 0" fill="#5dc382"/><path d="m282.984375 247.171875v52.964844h-35.3125v-52.964844zm0 0" fill="#ebeced"/><path d="m318.292969 220.691406c-4.097657.007813-7.664063-2.808594-8.609375-6.796875-.941406-3.992187.984375-8.105469 4.65625-9.933593l17.652344-8.828126c4.363281-2.179687 9.667968-.40625 11.847656 3.957032 2.179687 4.363281.410156 9.667968-3.953125 11.84375l-17.65625 8.828125c-1.222657.609375-2.570313.929687-3.9375.929687zm0 0" fill="#f4cd1e"/><path d="m35.808594 220.691406c-1.363282 0-2.710938-.320312-3.933594-.929687l-17.65625-8.828125c-4.363281-2.175782-6.132812-7.480469-3.957031-11.84375 2.179687-4.363282 7.484375-6.136719 11.847656-3.957032l17.65625 8.828126c3.667969 1.828124 5.597656 5.941406 4.652344 9.933593-.941407 3.988281-4.507813 6.804688-8.609375 6.796875zm0 0" fill="#f4cd1e"/><g fill="#ebeced"><path d="m194.707031 1.234375v35.839844c-11.652343-2.351563-23.65625-2.351563-35.308593 0v-35.839844c11.710937-1.644531 23.597656-1.644531 35.308593 0zm0 0"/><path d="m88.777344 123.585938c-.003906 5.929687.585937 11.84375 1.765625 17.65625h-35.839844c-1.648437-11.714844-1.648437-23.597657 0-35.3125h35.839844c-1.179688 5.8125-1.769531 11.726562-1.765625 17.65625zm0 0"/><path d="m275.921875 197.648438c-7.058594 9.425781-15.40625 17.804687-24.808594 24.894531l-25.332031-25.335938c9.890625-6.535156 18.355469-15.003906 24.890625-24.890625zm0 0"/></g></svg>