<svg height="512pt" viewBox="0 -4 512.10507 512" width="512pt" xmlns="http://www.w3.org/2000/svg"><path d="m230.503906 341.386719s18.867188-17.066407 68.269532-17.066407c49.398437 0 68.265624 17.066407 68.265624 17.066407s-18.867187 17.066406-68.265624 17.066406c-49.402344 0-68.269532-17.066406-68.269532-17.066406zm0 0" fill="#d13d34"/><path d="m367.039062 443.785156s-18.867187 17.066406-68.265624 17.066406c-49.402344 0-68.269532-17.066406-68.269532-17.066406v34.132813s18.867188 17.066406 68.269532 17.066406c49.398437 0 68.265624-17.066406 68.265624-17.066406zm0 0" fill="#f85b44"/><path d="m367.039062 409.652344s-18.867187 17.066406-68.265624 17.066406c-49.402344 0-68.269532-17.066406-68.269532-17.066406v34.132812s18.867188 17.066406 68.269532 17.066406c49.398437 0 68.265624-17.066406 68.265624-17.066406zm0 0" fill="#f85b44"/><path d="m367.039062 341.386719s-18.867187 17.066406-68.265624 17.066406c-49.402344 0-68.269532-17.066406-68.269532-17.066406v34.132812s18.867188 17.066407 68.269532 17.066407c49.398437 0 68.265624-17.066407 68.265624-17.066407zm0 0" fill="#f85b44"/><path d="m367.039062 375.519531s-18.867187 17.066407-68.265624 17.066407c-49.402344 0-68.269532-17.066407-68.269532-17.066407v34.132813s18.867188 17.066406 68.269532 17.066406c49.398437 0 68.265624-17.066406 68.265624-17.066406zm0 0" fill="#f85b44"/><g fill="#66993e"><path d="m367.039062 273.121094s18.867188-17.070313 68.265626-17.070313c49.398437 0 68.265624 17.070313 68.265624 17.070313s-18.867187 17.066406-68.265624 17.066406c-49.398438 0-68.265626-17.066406-68.265626-17.066406zm0 0"/><path d="m503.570312 443.785156v34.132813s-18.855468 17.066406-68.265624 17.066406c-4.351563 0-8.53125-.167969-12.457032-.425781h-.683594c-39.59375-2.644532-55.125-16.640625-55.125-16.640625v-34.132813s15.53125 13.996094 55.125 16.640625h.683594c3.925782.257813 8.105469.425781 12.457032.425781 14.390624.195313 28.746093-1.554687 42.667968-5.203124 9.277344-2.097657 18.003906-6.140626 25.597656-11.863282zm0 0"/><path d="m503.570312 409.652344v34.132812c-7.59375 5.722656-16.320312 9.765625-25.597656 11.863282-13.921875 3.648437-28.277344 5.398437-42.667968 5.203124-4.351563 0-8.53125-.167968-12.457032-.425781h-.683594c-39.59375-2.644531-55.125-16.640625-55.125-16.640625v-34.132812s15.53125 13.996094 55.125 16.640625h.683594c3.925782.253906 8.105469.425781 12.457032.425781 14.390624.195312 28.746093-1.554688 42.667968-5.203125 9.277344-2.097656 18.003906-6.140625 25.597656-11.863281zm0 0"/><path d="m503.570312 375.519531v34.132813c-7.59375 5.722656-16.320312 9.765625-25.597656 11.863281-13.921875 3.648437-28.277344 5.398437-42.667968 5.203125-4.351563 0-8.53125-.171875-12.457032-.425781h-.683594c-39.59375-2.644531-55.125-16.640625-55.125-16.640625v-34.132813s15.53125 13.996094 55.125 16.640625h.683594c3.925782.253906 8.105469.425782 12.457032.425782 14.390624.195312 28.746093-1.554688 42.667968-5.207032 9.277344-2.09375 18.003906-6.136718 25.597656-11.859375zm0 0"/><path d="m503.570312 341.386719v34.132812c-7.59375 5.722657-16.320312 9.765625-25.597656 11.859375-13.921875 3.652344-28.277344 5.402344-42.667968 5.207032-4.351563 0-8.53125-.171876-12.457032-.425782h-.683594c-39.59375-2.644531-55.125-16.640625-55.125-16.640625v-34.132812s15.53125 13.992187 55.125 16.640625h.683594c3.925782.253906 8.105469.425781 12.457032.425781 14.390624.195313 28.746093-1.558594 42.667968-5.207031 9.277344-2.09375 18.003906-6.136719 25.597656-11.859375zm0 0"/><path d="m503.570312 307.253906v34.132813c-7.59375 5.722656-16.320312 9.765625-25.597656 11.859375-13.921875 3.648437-28.277344 5.402344-42.667968 5.207031-4.351563 0-8.53125-.171875-12.457032-.425781h-.683594c-39.59375-2.648438-55.125-16.640625-55.125-16.640625v-34.132813c1.847657 1.472656 3.816407 2.785156 5.886719 3.925782.683594.425781 1.453125.851562 2.304688 1.277343 10.75 5.207031 22.28125 8.609375 34.132812 10.070313 1.535157.253906 3.242188.511718 4.949219.683594 2.476562.253906 5.121094.511718 7.851562.679687h.683594c1.699219.175781 3.410156.261719 5.117188.257813 1.027344.085937 2.050781.085937 3.074218.085937 1.195313.085937 2.472657.085937 3.753907.085937h.511719c6.230468 0 11.863281-.257812 17.152343-.769531l3.070313-.253906c.257812 0 .515625-.085937.769531-.085937 2.390625-.257813 4.609375-.597657 6.742187-.941407.660157-.0625 1.316407-.175781 1.960938-.339843 1.195312-.171876 2.21875-.339844 3.328125-.597657 1.109375-.253906 1.964844-.339843 2.816406-.511719.855469-.171874 1.878907-.425781 2.730469-.683593 1.453125-.339844 2.816406-.679688 4.097656-1.023438 2.21875-.597656 4.351563-1.28125 6.3125-1.960937 1.28125-.429688 2.476563-.855469 3.671875-1.367188 2.300781-.9375 4.351563-1.792968 6.058594-2.644531 3.074219-1.480469 6.015625-3.21875 8.789063-5.207031.339843-.339844.597656-.511719.683593-.597656zm0 0"/><path d="m503.570312 273.121094v34.214844s0-.082032-.082031 0c-.085937.085937-.34375.34375-.683593.597656-2.773438 1.988281-5.714844 3.726562-8.789063 5.207031-1.792969.851563-3.757813 1.792969-6.058594 2.644531-1.109375.425782-2.390625.9375-3.671875 1.367188-1.960937.679687-4.09375 1.363281-6.3125 1.960937-1.28125.34375-2.644531.683594-4.097656 1.023438-.851562.257812-1.792969.429687-2.730469.683593-.9375.257813-1.792969.339844-2.816406.511719s-2.21875.425781-3.328125.597657c-.644531.164062-1.300781.277343-1.960938.339843-2.132812.34375-4.351562.683594-6.742187.941407-.253906 0-.511719.085937-.769531.085937l-3.070313.253906c-5.289062.511719-10.921875.769531-17.152343.769531h-.511719c-1.28125 0-2.558594 0-3.753907-.085937-1.023437 0-2.046874 0-3.074218-.085937l-5.117188-.257813h-.683594c-2.730468-.167969-5.375-.425781-7.851562-.679687-1.707031-.171876-3.414062-.429688-4.949219-.683594-11.851562-1.460938-23.382812-4.863282-34.132812-10.070313-.851563-.425781-1.621094-.851562-2.304688-1.277343-2.070312-1.140626-4.039062-2.453126-5.886719-3.925782v-34.132812s15.53125 13.992187 55.125 16.636718h.683594c3.925782.257813 8.105469.429688 12.457032.429688 14.390624.191406 28.746093-1.558594 42.667968-5.207031 9.277344-2.09375 18.003906-6.136719 25.597656-11.859375zm0 0"/></g><path d="m477.972656 443.785156v34.132813s-15.53125 13.996093-55.125 16.640625h-.683594c-39.59375-2.644532-55.125-16.640625-55.125-16.640625v-22.269531c13.921876 3.648437 28.273438 5.398437 42.664063 5.203124 4.355469 0 8.535156-.167968 12.460937-.425781h.683594c39.59375-2.644531 55.125-16.640625 55.125-16.640625zm0 0" fill="#9aca5c"/><path d="m477.972656 409.652344v34.132812s-15.53125 13.996094-55.125 16.640625h-.683594c-3.925781.257813-8.105468.425781-12.460937.425781-14.390625.195313-28.742187-1.554687-42.664063-5.203124v-34.132813c13.921876 3.648437 28.273438 5.398437 42.664063 5.203125 4.355469 0 8.535156-.171875 12.460937-.425781h.683594c39.59375-2.644531 55.125-16.640625 55.125-16.640625zm0 0" fill="#9aca5c"/><path d="m477.972656 375.519531v34.132813s-15.53125 13.996094-55.125 16.640625h-.683594c-3.925781.253906-8.105468.425781-12.460937.425781-14.390625.195312-28.742187-1.554688-42.664063-5.203125v-34.136719c13.921876 3.652344 28.273438 5.402344 42.664063 5.207032 4.355469 0 8.535156-.171876 12.460937-.425782h.683594c39.59375-2.644531 55.125-16.640625 55.125-16.640625zm0 0" fill="#9aca5c"/><path d="m477.972656 341.386719v34.132812s-15.53125 13.996094-55.125 16.640625h-.683594c-3.925781.253906-8.105468.425782-12.460937.425782-14.390625.195312-28.742187-1.554688-42.664063-5.207032v-34.132812c13.921876 3.648437 28.273438 5.402344 42.664063 5.207031 4.355469 0 8.535156-.171875 12.460937-.425781h.683594c39.59375-2.648438 55.125-16.640625 55.125-16.640625zm0 0" fill="#9aca5c"/><path d="m477.972656 307.253906v34.132813s-15.53125 13.992187-55.125 16.640625h-.683594c-3.925781.253906-8.105468.425781-12.460937.425781-14.390625.195313-28.742187-1.558594-42.664063-5.207031v-34.132813c1.28125.34375 2.644532.683594 4.09375 1.023438.941407.257812 1.878907.429687 2.816407.683593.941406.257813 1.792969.339844 2.730469.511719 1.109374.257813 2.132812.425781 3.328124.597657.644532.164062 1.300782.277343 1.964844.339843 2.132813.34375 4.351563.683594 6.742188.941407.253906 0 .511718.085937.765625.085937.683593.082031 1.367187.082031 2.046875.167969.339844.070312.683594.101562 1.027344.085937 5.289062.511719 10.921874.769531 17.148437.769531 2.648437 0 5.292969-.085937 7.765625-.171874 1.570312.003906 3.136719-.082032 4.695312-.257813h.683594c2.730469-.167969 5.375-.425781 7.847656-.679687 1.707032-.171876 3.414063-.429688 4.949219-.683594 11.871094-1.507813 23.425781-4.90625 34.21875-10.070313.855469-.511719 1.539063-.851562 2.21875-1.277343 2.074219-1.140626 4.042969-2.453126 5.890625-3.925782zm0 0" fill="#9aca5c"/><path d="m477.972656 284.980469v22.273437c-1.847656 1.472656-3.816406 2.785156-5.890625 3.925782-.714843.460937-1.457031.890624-2.21875 1.277343-10.792969 5.164063-22.347656 8.5625-34.21875 10.070313-1.535156.253906-3.242187.511718-4.949219.683594-2.472656.253906-5.117187.511718-7.847656.679687h-.683594l-4.695312.257813c-2.472656.085937-5.117188.171874-7.765625.171874-6.226563 0-11.859375-.257812-17.148437-.769531-.34375.015625-.6875-.015625-1.027344-.085937-.683594-.011719-1.367188-.070313-2.046875-.167969-.253907 0-.511719-.085937-.765625-.085937-2.390625-.257813-4.609375-.597657-6.742188-.941407-.664062-.0625-1.320312-.175781-1.964844-.339843-1.109374-.171876-2.304687-.339844-3.328124-.597657-1.023438-.253906-1.875-.339843-2.730469-.511719-1.023438-.253906-1.875-.425781-2.816407-.683593-1.449218-.339844-2.8125-.679688-4.09375-1.023438v-34.132812c13.921876 3.648437 28.273438 5.398437 42.664063 5.207031 4.355469 0 8.535156-.171875 12.460937-.429688h.683594c3.925782.257813 8.105469.429688 12.457032.429688 14.390624.191406 28.746093-1.558594 42.667968-5.207031zm0 0" fill="#9aca5c"/><path d="m119.570312 162.1875h59.589844c3.546875.011719 6.714844 2.222656 7.957032 5.542969 1.242187 3.324219.300781 7.066406-2.367188 9.40625-11.042969 9.710937-22.511719 22.980469-22.511719 36.25 0 51.199219 68.265625 68.265625 68.265625 168.53125 0 61.867187-25.597656 113.066406-110.933594 113.066406-85.332031 0-110.933593-51.199219-110.933593-113.066406 0-100.265625 68.269531-117.332031 68.269531-168.53125 0-13.269531-11.46875-26.539063-22.511719-36.25-2.667969-2.339844-3.609375-6.082031-2.367187-9.40625 1.242187-3.320313 4.410156-5.53125 7.957031-5.542969zm0 0" fill="#ffeb49"/><path d="m187.839844 392.585938c0 37.703124-30.566406 68.265624-68.269532 68.265624-37.703124 0-68.265624-30.5625-68.265624-68.265624 0-37.703126 30.5625-68.265626 68.265624-68.265626 37.703126 0 68.269532 30.5625 68.269532 68.265626zm0 0" fill="#ebeced"/><path d="m119.570312 324.320312v34.132813c-9.050781.015625-17.726562 3.605469-24.148437 9.984375l-24.148437-24.148438c12.820312-12.789062 30.191406-19.972656 48.296874-19.96875zm0 0" fill="#f6f6f6"/><path d="m167.871094 344.289062-24.148438 24.148438c-6.421875-6.378906-15.101562-9.96875-24.152344-9.984375v-34.132813c18.109376-.003906 35.480469 7.179688 48.300782 19.96875zm0 0" fill="#66993e"/><path d="m187.839844 392.585938h-34.136719c-.015625-9.050782-3.601563-17.730469-9.980469-24.148438l24.148438-24.148438c12.789062 12.820313 19.96875 30.1875 19.96875 48.296876zm0 0" fill="#f6f6f6"/><path d="m187.839844 392.585938c0 18.109374-7.179688 35.476562-19.96875 48.296874l-24.148438-24.148437c6.378906-6.417969 9.964844-15.097656 9.980469-24.148437zm0 0" fill="#66993e"/><path d="m167.871094 440.882812c-12.820313 12.789063-30.191406 19.972657-48.300782 19.96875v-34.132812c9.050782-.015625 17.730469-3.605469 24.152344-9.984375zm0 0" fill="#f6f6f6"/><path d="m119.570312 426.71875v34.132812c-18.105468.003907-35.476562-7.179687-48.296874-19.96875l24.148437-24.148437c6.421875 6.378906 15.097656 9.96875 24.148437 9.984375zm0 0" fill="#66993e"/><path d="m95.421875 416.734375-24.148437 24.148437c-12.789063-12.820312-19.96875-30.1875-19.96875-48.296874h34.132812c.015625 9.050781 3.605469 17.730468 9.984375 24.148437zm0 0" fill="#f6f6f6"/><path d="m95.421875 368.4375c-6.378906 6.417969-9.96875 15.097656-9.984375 24.148438h-34.132812c0-18.109376 7.179687-35.476563 19.96875-48.296876zm0 0" fill="#66993e"/><path d="m153.703125 392.585938c-.019531 16.257812-11.519531 30.242187-27.472656 33.398437-15.949219 3.15625-31.910157-5.390625-38.121094-20.417969s-.949219-32.347656 12.574219-41.378906c13.523437-9.027344 31.539062-7.25 43.039062 4.25 6.378906 6.417969 9.964844 15.097656 9.980469 24.148438zm0 0" fill="#9aca5c"/><path d="m511.054688 269.21875c-.359376-.679688-.816407-1.308594-1.347657-1.867188-.160156-.171874-.230469-.402343-.410156-.5625-.851563-.742187-19.625-17.214843-65.457031-19.082031v-8.722656c0-4.710937-3.820313-8.53125-8.535156-8.53125-4.710938 0-8.53125 3.820313-8.53125 8.53125v8.722656c-44.46875 1.808594-63.421876 17.3125-65.273438 18.925781l-.160156.136719c-.078125.078125-.113282.1875-.1875.265625-.667969.648438-1.214844 1.410156-1.625 2.242188-.125.25-.238282.480468-.339844.734375-.421875.984375-.65625 2.039062-.683594 3.109375v53.503906c-18.933594-7.75-39.28125-11.441406-59.730468-10.839844-23.097657-1.035156-46.074219 3.898438-66.707032 14.328125-7.886718-24.667969-20.601562-47.523437-37.402344-67.234375-13.335937-17.339844-23.890624-31.050781-23.890624-49.492187 0-8.132813 6.960937-18.722657 19.625-29.867188 5.316406-4.6875 7.179687-12.175781 4.683593-18.8125-2.496093-6.632812-8.832031-11.035156-15.921875-11.054687h-119.175781c-7.089844.019531-13.425781 4.421875-15.925781 11.054687-2.496094 6.636719-.628906 14.125 4.6875 18.8125 12.664062 11.144531 19.625 21.734375 19.625 29.867188-.105469 8.84375-2.5 17.511719-6.945313 25.15625-17.480469-2.773438-33.746093-10.65625-46.753906-22.65625-2.144531-2.21875-5.316406-3.109375-8.300781-2.328125-2.980469.78125-5.3125 3.113281-6.09375 6.09375-.78125 2.984375.109375 6.15625 2.328125 8.300781 8.828125 8.273437 18.96875 15.027344 30.003906 19.992187-16.554687 6.402344-32.503906 16.929688-32.503906 33.707032 0 4.714844 3.820312 8.535156 8.53125 8.535156 4.714843 0 8.535156-3.820312 8.535156-8.535156 0-8.046875 13.21875-15.179688 28.269531-20.035156-.339844.433593-.648437.851562-.988281 1.289062-19.753906 25.675781-44.347656 57.632812-44.347656 119.011719 0 79.550781 41.308593 121.601562 119.464843 121.601562 48.964844 0 83.457032-16.511719 102.402344-48.410156v22.808594c-.003906 2.414062 1.019532 4.714843 2.804688 6.332031.871094.777344 21.941406 19.269531 73.996094 19.269531 37.835937 0 58.945312-9.457031 68.316406-15.222656 9.335937 5.65625 30.710937 15.222656 68.214844 15.222656 54.109374 0 74.113281-19.371093 74.300781-19.566406 1.601562-1.601563 2.5-3.769531 2.5-6.035156v-204.796875c-.050781-1.363282-.40625-2.699219-1.050781-3.902344zm-16.015626 170.148438-.238281.144531c-.742187.453125-1.613281.953125-2.648437 1.5l-.5625.28125c-.9375.488281-2.011719 1-3.183594 1.527343l-.972656.4375c-1.398438.605469-2.960938 1.226563-4.667969 1.84375-.355469.136719-.765625.261719-1.140625.390626-1.566406.570312-3.253906 1.105468-5.0625 1.605468-.417969.117188-.808594.246094-1.246094.367188-2.125.585937-4.4375 1.140625-6.894531 1.65625-.570313.125-1.175781.238281-1.773437.347656-2.355469.46875-4.847657.894531-7.5 1.261719l-1.058594.164062c-2.9375.382813-6.109375.683594-9.386719.921875-.785156.058594-1.589844.109375-2.390625.152344-3.480469.207031-7.097656.351562-10.980469.351562-3.882812 0-7.511719-.144531-11-.351562-.804687-.050781-1.605469-.09375-2.390625-.152344-3.308594-.238281-6.484375-.539062-9.386718-.929687-.359376-.042969-.683594-.105469-1.039063-.15625-2.691406-.375-5.214844-.808594-7.605469-1.277344l-1.636718-.324219c-2.492188-.523437-4.847657-1.09375-7-1.707031l-1.097657-.324219c-1.894531-.546875-3.671875-1.109375-5.292969-1.707031l-.9375-.316406c-1.757812-.640625-3.355468-1.28125-4.789062-1.902344l-.851562-.367187c-1.273438-.570313-2.433594-1.125-3.414063-1.648438l-.324219-.160156c-1.074218-.574219-1.980468-1.085938-2.738281-1.554688l-.257813-.066406v-14.953125c.410157.191406.855469.367187 1.324219.546875.914063.394531 1.824219.777344 2.816407 1.171875.664062.253906 1.382812.511719 2.082031.765625.988281.359375 1.980469.71875 3.039062 1.066406.800781.265625 1.628907.519532 2.472657.777344 1.09375.339844 2.203124.664062 3.414062.988281.914062.257813 1.84375.496094 2.796875.742188 1.222656.308593 2.476563.597656 3.773437.855469 1.015626.222656 2.039063.445312 3.097657.65625 1.375.273437 2.808593.519531 4.265625.769531 1.101562.1875 2.183594.375 3.335937.535156 1.582031.242187 3.246094.4375 4.910157.625 1.140624.136719 2.242187.28125 3.410156.390625 1.929687.1875 3.960937.324219 5.976562.453125 1.039063.070313 2.039063.164063 3.113282.214844 3.175781.144531 6.460937.238281 9.90625.238281 3.449218 0 6.945312-.09375 10.242187-.246094.398437 0 .757813-.0625 1.148437-.078125 16.613282-.484375 33-4.007812 48.34375-10.394531zm-139.460937 1.707031-.402344.195312c-.996093.519531-2.140625 1.066407-3.410156 1.621094-.285156.128906-.546875.253906-.855469.375-1.425781.621094-3.019531 1.253906-4.769531 1.894531l-1 .339844c-1.613281.5625-3.410156 1.117188-5.246094 1.707031l-1.109375.324219c-2.152344.589844-4.488281 1.152344-6.980468 1.707031l-1.707032.324219c-2.390625.46875-4.914062.90625-7.613281 1.28125l-.996094.152344c-2.945312.382812-6.121093.683594-9.386719.929687l-2.371093.144531c-3.492188.207032-7.101563.351563-10.992188.351563s-7.511719-.144531-11-.351563c-.800781-.050781-1.605469-.09375-2.390625-.152343-3.308594-.238281-6.484375-.539063-9.386718-.929688-.355469-.042969-.679688-.101562-1.039063-.152343-2.6875-.378907-5.214844-.8125-7.605469-1.28125l-1.636718-.324219c-2.492188-.519531-4.847657-1.09375-6.996094-1.707031l-1.101563-.324219c-1.894531-.546875-3.671875-1.109375-5.292969-1.707031l-.9375-.316407c-1.757812-.640625-3.351562-1.277343-4.785156-1.902343l-.855468-.367188c-1.269532-.570312-2.429688-1.125-3.414063-1.644531l-.324219-.164063c-1.074218-.570312-1.980468-1.082031-2.738281-1.554687l-.195313-.167969v-14.953125c.410157.191406.894532.367187 1.320313.546875.914063.394531 1.828125.777344 2.816406 1.171875.667969.253906 1.382813.511719 2.082031.765625.984376.359375 1.980469.71875 3.046876 1.066406.792968.265625 1.621093.519532 2.449218.777344 1.101563.339844 2.21875.664062 3.414063.988281.90625.257813 1.835937.496094 2.78125.734375 1.230469.316406 2.492187.605469 3.789062.898438 1.015625.21875 2.023438.441406 3.082031.648437 1.382813.28125 2.824219.527344 4.265626.777344 1.09375.1875 2.167968.375 3.3125.535156 1.585937.238281 3.257812.4375 4.9375.632813 1.128906.128906 2.230468.273437 3.414062.382812 1.9375.1875 3.976562.324219 5.972656.453125 1.042969.066407 2.03125.160157 3.109375.210938 3.171875.148437 6.457031.242187 9.90625.242187 3.445313 0 6.945313-.09375 10.238281-.25.402344 0 .769532-.058594 1.171876-.085937 2.925781-.152344 5.757812-.355469 8.453124-.628907 13.742188-1.101562 27.214844-4.410156 39.902344-9.796874v14.875l-.195312.117187c-.757813.46875-1.664063.992187-2.730469 1.554687zm-112.402344-83.203125c.667969.257812 1.382813.511718 2.082031.769531.984376.359375 1.980469.714844 3.046876 1.066406.792968.265625 1.621093.519531 2.449218.777344 1.101563.339844 2.21875.664063 3.414063.988281.90625.257813 1.835937.496094 2.78125.734375 1.230469.316407 2.492187.605469 3.789062.894531 1.015625.222657 2.023438.445313 3.082031.648438 1.382813.285156 2.824219.53125 4.265626.777344 1.09375.1875 2.167968.375 3.3125.539062 1.585937.238282 3.257812.433594 4.9375.632813 1.128906.125 2.230468.269531 3.414062.382812 1.9375.1875 3.976562.324219 5.972656.453125 1.042969.066406 2.03125.160156 3.109375.210938 3.171875.144531 6.457031.238281 9.90625.238281 3.445313 0 6.730469-.09375 9.90625-.238281 1.074219-.050782 2.066407-.144532 3.105469-.210938 2.050781-.128906 4.078125-.265625 5.972656-.453125 1.171875-.113281 2.269532-.257812 3.414063-.382812 1.707031-.199219 3.347656-.394531 4.933593-.632813 1.144532-.164062 2.21875-.351562 3.308594-.539062 1.46875-.246094 2.910156-.492188 4.269532-.777344 1.058593-.203125 2.0625-.425781 3.078124-.648438 1.296876-.289062 2.5625-.578124 3.789063-.894531.949219-.238281 1.878906-.476562 2.78125-.734375 1.171875-.324218 2.296875-.648437 3.414063-.988281.855468-.257813 1.707031-.511719 2.457031-.777344 1.066406-.351562 2.058593-.707031 3.046875-1.066406.699218-.257813 1.417968-.511719 2.082031-.769531.992187-.390625 1.902344-.773438 2.816406-1.167969.425781-.179687.914063-.359375 1.324219-.546875v14.941406l-.195312.121094c-.761719.46875-1.707032.988281-2.730469 1.550781l-.402344.199219c-1 .519531-2.140625 1.066406-3.414063 1.621094-.28125.128906-.546874.253906-.851562.375-1.425781.621094-3.023438 1.253906-4.773438 1.894531l-.996093.339844c-1.613281.5625-3.414063 1.117187-5.25 1.707031l-1.109375.324219c-2.148438.589843-4.488282 1.152343-6.980469 1.707031l-1.703125.324219c-2.390625.46875-4.917969.90625-7.613281 1.28125l-1 .152343c-2.941407.382813-6.117188.683594-9.386719.929688l-2.371094.144531c-3.488281.207031-7.101562.351563-10.992187.351563s-7.507813-.144532-11-.351563c-.800781-.050781-1.601563-.09375-2.386719-.152343-3.3125-.238282-6.484375-.539063-9.386719-.929688-.359375-.042969-.683593-.101562-1.042969-.152344-2.6875-.378906-5.210937-.8125-7.601562-1.28125l-1.640625-.324218c-2.488281-.519532-4.84375-1.09375-6.996094-1.707032l-1.101562-.324218c-1.894531-.546876-3.667969-1.109376-5.289063-1.707032l-.9375-.316406c-1.757812-.640625-3.355468-1.277344-4.789062-1.902344l-.851563-.367187c-1.273437-.570313-2.433593-1.125-3.414062-1.644531l-.324219-.164063c-1.074219-.570313-1.980469-1.082031-2.738281-1.554687l-.128907-.132813v-14.953125c.410157.1875.894532.367188 1.320313.546875.914063.394531 1.828125.777344 2.816406 1.167969zm112.402344 49.035156-.402344.195312c-.996093.519532-2.140625 1.066407-3.410156 1.621094-.285156.128906-.546875.253906-.855469.375-1.425781.625-3.019531 1.253906-4.769531 1.894532l-1 .339843c-1.613281.566407-3.410156 1.121094-5.246094 1.707031l-1.109375.324219c-2.152344.589844-4.488281 1.152344-6.980468 1.707031l-1.707032.324219c-2.390625.46875-4.914062.90625-7.613281 1.28125l-.996094.152344c-2.945312.386719-6.121093.683594-9.386719.929687l-2.371093.144532c-3.492188.207031-7.101563.351562-10.992188.351562s-7.511719-.144531-11-.351562c-.800781-.050782-1.605469-.09375-2.390625-.152344-3.308594-.238281-6.484375-.535156-9.386718-.929688-.355469-.042968-.679688-.101562-1.039063-.152343-2.6875-.375-5.214844-.8125-7.605469-1.28125l-1.636718-.324219c-2.492188-.519531-4.847657-1.09375-6.996094-1.707031l-1.101563-.324219c-1.894531-.546875-3.671875-1.109375-5.292969-1.707031l-.9375-.316407c-1.757812-.636718-3.351562-1.277343-4.785156-1.902343l-.855468-.367188c-1.269532-.570312-2.429688-1.125-3.414063-1.644531l-.324219-.164062c-1.074218-.570313-1.980468-1.082032-2.738281-1.550782l-.195313-.136718v-14.953126c.410157.1875.894532.367188 1.320313.546876.914063.394531 1.828125.777343 2.816406 1.167968.667969.257813 1.382813.515625 2.082031.769532.984376.359374 1.980469.71875 3.046876 1.066406.792968.265625 1.621093.519531 2.449218.777344 1.101563.339843 2.21875.664062 3.414063.988281.90625.257812 1.835937.496093 2.78125.734375 1.230469.316406 2.492187.605468 3.789062.898437 1.015625.21875 2.023438.441407 3.082031.648438 1.382813.28125 2.824219.527343 4.265626.773437 1.09375.1875 2.167968.375 3.3125.539063 1.585937.238281 3.257812.433593 4.9375.632812 1.128906.125 2.230468.273438 3.414062.382813 1.9375.1875 3.976562.324218 5.972656.453125 1.042969.066406 2.03125.160156 3.109375.210937 3.171875.144532 6.457031.242188 9.90625.242188 3.445313 0 6.945313-.097656 10.238281-.25.402344 0 .769532-.058594 1.171876-.085938 2.925781-.152344 5.757812-.355468 8.453124-.628906 13.742188-1.101562 27.214844-4.410156 39.902344-9.796875v14.871094l-.195312.121093c-.757813.46875-1.664063.988282-2.730469 1.554688zm139.460937-1.675781-.238281.148437c-.742187.449219-1.613281.953125-2.648437 1.5l-.5625.28125c-.9375.488282-2.011719 1-3.183594 1.527344l-.972656.4375c-1.398438.605469-2.960938 1.226562-4.667969 1.839844-.355469.136718-.765625.265625-1.140625.394531-1.566406.570313-3.253906 1.101563-5.0625 1.605469-.417969.117187-.808594.246094-1.246094.367187-2.125.585938-4.4375 1.140625-6.894531 1.652344-.570313.128906-1.175781.242187-1.773437.351563-2.355469.46875-4.847657.894531-7.5 1.261718l-1.058594.164063c-2.9375.382812-6.109375.683593-9.386719.921875-.785156.058594-1.589844.109375-2.390625.152344-3.480469.203124-7.097656.351562-10.980469.351562-3.882812 0-7.511719-.148438-11-.351562-.804687-.050782-1.605469-.09375-2.390625-.152344-3.308594-.238282-6.484375-.539063-9.386718-.929688-.359376-.042968-.683594-.105468-1.039063-.15625-2.691406-.375-5.214844-.808594-7.605469-1.277344l-1.636718-.324218c-2.492188-.523438-4.847657-1.09375-7-1.707032l-1.097657-.324218c-1.894531-.546875-3.671875-1.109375-5.292969-1.707032l-.9375-.316406c-1.757812-.640625-3.355468-1.28125-4.789062-1.902344l-.851562-.367187c-1.273438-.574219-2.433594-1.128906-3.414063-1.648437l-.324219-.160157c-1.074218-.574219-1.980468-1.085937-2.738281-1.554687l-.257813-.066406v-14.953126c.410157.1875.855469.367188 1.324219.546876.914063.394531 1.824219.777343 2.816407 1.167968.664062.257813 1.382812.515625 2.082031.769532.988281.359374 1.980469.71875 3.039062 1.066406.800781.265625 1.628907.519531 2.472657.777344 1.09375.339843 2.203124.664062 3.414062.988281.914062.257812 1.84375.496093 2.796875.742187 1.222656.308594 2.476563.597656 3.773437.855469 1.015626.222656 2.039063.441406 3.097657.65625 1.375.273437 2.808593.519531 4.265625.769531 1.101562.1875 2.183594.375 3.335937.535156 1.582031.238282 3.246094.4375 4.910157.625 1.140624.136719 2.242187.28125 3.410156.390626 1.929687.1875 3.960937.324218 5.976562.453124 1.039063.066407 2.039063.164063 3.113282.214844 3.175781.144532 6.460937.238282 9.90625.238282 3.449218 0 6.945312-.09375 10.242187-.25.398437 0 .757813-.058594 1.148437-.074219 16.613282-.484375 33-4.007813 48.34375-10.394531zm0-34.132813-.238281.144532c-.742187.453124-1.613281.957031-2.648437 1.503906l-.5625.28125c-.9375.488281-2.011719 1-3.183594 1.527344l-.972656.433593c-1.398438.609375-2.960938 1.230469-4.667969 1.84375-.355469.136719-.765625.265625-1.140625.394531-1.566406.566407-3.253906 1.101563-5.0625 1.605469-.417969.117188-.808594.246094-1.246094.363281-2.125.589844-4.4375 1.144532-6.894531 1.65625-.570313.128907-1.175781.238282-1.773437.351563-2.355469.46875-4.847657.894531-7.5 1.261719l-1.058594.164062c-2.9375.382813-6.109375.679688-9.386719.921875-.785156.058594-1.589844.109375-2.390625.152344-3.480469.203125-7.097656.347656-10.980469.347656-3.882812 0-7.511719-.144531-11-.347656-.804687-.050781-1.605469-.09375-2.390625-.152344-3.308594-.242187-6.484375-.539062-9.386718-.933593-.359376-.039063-.683594-.101563-1.039063-.152344-2.691406-.375-5.214844-.808594-7.605469-1.28125l-1.636718-.324219c-2.492188-.519531-4.847657-1.089844-7-1.703125l-1.097657-.324219c-1.894531-.546875-3.671875-1.109375-5.292969-1.707031l-.9375-.316406c-1.757812-.640625-3.355468-1.28125-4.789062-1.902344l-.851562-.367188c-1.273438-.574218-2.433594-1.128906-3.414063-1.648437l-.324219-.160156c-1.074218-.574219-1.980468-1.085938-2.738281-1.554688l-.257813-.066406v-14.953125c.410157.1875.855469.367188 1.324219.546875.914063.394531 1.824219.777344 2.816407 1.167969.664062.257812 1.382812.511718 2.082031.769531.988281.359375 1.980469.714844 3.039062 1.066406.800781.265625 1.628907.519531 2.472657.777344 1.09375.339844 2.203124.664063 3.414062.988281.914062.257813 1.84375.496094 2.796875.742188 1.222656.308594 2.476563.597656 3.773437.855468 1.015626.21875 2.039063.441407 3.097657.65625 1.375.273438 2.808593.519532 4.265625.765626 1.101562.191406 2.183594.378906 3.335937.539062 1.582031.238281 3.246094.4375 4.910157.625 1.140624.136719 2.242187.28125 3.410156.390625 1.929687.1875 3.960937.324219 5.976562.453125 1.039063.066406 2.039063.160156 3.113282.210938 3.175781.148437 6.460937.242187 9.90625.242187 3.449218 0 6.945312-.09375 10.242187-.25.398437 0 .757813-.058594 1.148437-.074219 16.613282-.484375 33-4.007812 48.34375-10.394531zm0-34.132812-.238281.144531c-.742187.453125-1.613281.957031-2.648437 1.503906l-.5625.28125c-.9375.484375-2.011719.996094-3.183594 1.527344l-.972656.433594c-1.398438.605469-2.960938 1.230469-4.667969 1.84375-.355469.136719-.765625.265625-1.140625.394531-1.566406.566406-3.253906 1.101562-5.0625 1.601562-.417969.121094-.808594.25-1.246094.367188-2.125.589844-4.4375 1.144531-6.894531 1.65625-.570313.128906-1.175781.238281-1.773437.351562-2.355469.46875-4.847657.894532-7.5 1.261719l-1.058594.160157c-2.9375.386718-6.109375.683593-9.386719.921874-.785156.0625-1.589844.113282-2.390625.15625-3.480469.203126-7.097656.347657-10.980469.347657-3.882812 0-7.511719-.144531-11-.347657-.804687-.050781-1.605469-.09375-2.390625-.15625-3.308594-.238281-6.484375-.535156-9.386718-.929687-.359376-.042969-.683594-.101563-1.039063-.152344-2.691406-.375-5.214844-.8125-7.605469-1.28125l-1.636718-.324219c-2.492188-.519531-4.847657-1.089843-7-1.707031l-1.097657-.324219c-1.894531-.542968-3.671875-1.109374-5.292969-1.707031l-.9375-.3125c-1.757812-.640625-3.355468-1.28125-4.789062-1.90625l-.851562-.363281c-1.273438-.574219-2.433594-1.128906-3.414063-1.648438l-.324219-.164062c-1.074218-.570312-1.980468-1.082031-2.738281-1.550781l-.257813-.070313v-14.949218c.410157.1875.855469.367187 1.324219.546874.914063.390626 1.824219.777344 2.816407 1.167969.664062.257813 1.382812.511719 2.082031.769531.988281.359376 1.980469.714844 3.039062 1.066407.800781.265625 1.628907.519531 2.472657.777343 1.09375.339844 2.203124.664063 3.414062.988282.914062.257812 1.84375.496094 2.796875.742187 1.222656.308594 2.476563.597657 3.773437.855469 1.015626.21875 2.039063.441406 3.097657.65625 1.375.273438 2.808593.519531 4.265625.765625 1.101562.1875 2.183594.375 3.335937.539063 1.582031.238281 3.246094.433593 4.910157.621093 1.140624.136719 2.242187.285157 3.410156.394531 1.929687.1875 3.960937.324219 5.976562.453126 1.039063.066406 2.039063.160156 3.113282.210937 3.175781.144531 6.460937.242187 9.90625.242187 3.449218 0 6.945312-.097656 10.242187-.25.398437 0 .757813-.058593 1.148437-.078124 16.613282-.480469 33-4.003907 48.34375-10.390626zm0-49.074219v14.941406l-.238281.144531c-.742187.453126-1.613281.957032-2.648437 1.503907l-.5625.28125c-.9375.484375-2.011719.996093-3.183594 1.527343l-.972656.433594c-1.398438.605469-2.960938 1.230469-4.667969 1.84375-.355469.136719-.765625.265625-1.140625.394532-1.566406.566406-3.253906 1.101562-5.0625 1.601562-.417969.121094-.808594.25-1.246094.367188-2.125.589843-4.4375 1.144531-6.894531 1.65625-.570313.128906-1.175781.238281-1.773437.351562-2.355469.46875-4.847657.894531-7.5 1.261719l-1.058594.160156c-2.9375.386719-6.109375.683594-9.386719.921875-.785156.0625-1.589844.113281-2.390625.15625-3.480469.203125-7.097656.347656-10.980469.347656-3.882812 0-7.511719-.144531-11-.347656-.804687-.050781-1.605469-.09375-2.390625-.15625-3.308594-.238281-6.484375-.535156-9.386718-.929688-.359376-.042968-.683594-.101562-1.039063-.152343-2.691406-.375-5.214844-.8125-7.605469-1.28125l-1.636718-.324219c-2.492188-.519531-4.847657-1.089844-7-1.707031l-1.097657-.324219c-1.894531-.546875-3.671875-1.109375-5.292969-1.707031l-.9375-.3125c-1.757812-.640625-3.355468-1.28125-4.789062-1.90625l-.851562-.367188c-1.273438-.570312-2.433594-1.125-3.414063-1.644531l-.324219-.164062c-1.074218-.570313-1.980468-1.082032-2.738281-1.550782l-.257813-.070312v-14.949219c.410157.1875.855469.367187 1.324219.546875.914063.390625 1.824219.777344 2.816407 1.167969.664062.257812 1.382812.511719 2.082031.769531.988281.355469 1.980469.714844 3.039062 1.066406.800781.261719 1.628907.519532 2.472657.777344 1.09375.339844 2.203124.664062 3.414062.988281.914062.253907 1.84375.496094 2.796875.742188 1.222656.308593 2.476563.597656 3.773437.851562 1.015626.222657 2.039063.445313 3.097657.660157 1.375.273437 2.808593.519531 4.265625.765624 1.101562.1875 2.183594.375 3.335937.539063 1.582031.238281 3.246094.433594 4.910157.621094 1.140624.136719 2.242187.28125 3.410156.394531 1.929687.1875 3.960937.324219 5.976562.453125 1.039063.066406 2.039063.160156 3.113282.210937 3.175781.144532 6.460937.238282 9.90625.238282 3.449218 0 6.734374-.09375 9.90625-.238282 1.066406-.050781 2.050781-.144531 3.082031-.210937 2.054687-.128906 4.105469-.265625 6.042969-.453125 1.160156-.113281 2.234374-.25 3.34375-.382812 1.707031-.199219 3.414062-.394532 5.015624-.632813 1.109376-.164063 2.160157-.351563 3.226563-.53125 1.503906-.246094 2.980469-.5 4.394531-.792969 1.015625-.195312 1.988282-.410156 2.960938-.621094 1.347656-.300781 2.664062-.605468 3.933594-.929687.90625-.230469 1.785156-.453125 2.648437-.691406 1.234375-.34375 2.414063-.691407 3.566406-1.050781.765625-.238282 1.542969-.46875 2.277344-.714844 1.144531-.378906 2.210937-.761719 3.269531-1.152344.621094-.230469 1.269532-.453125 1.867188-.683594 1.082031-.425781 2.089844-.855468 3.070312-1.273437.359375-.117188.777344-.273438 1.128906-.433594zm-59.734374-23.304687c17.359374-.492188 34.644531 2.40625 50.894531 8.535156l-.929688.363281c-.855469.324219-1.65625.648437-2.5625.984375-.519531.1875-1.082031.367188-1.628906.554688-.855469.296874-1.765625.597656-2.714844.851562l-1.996093.589844c-.945313.273437-1.9375.535156-2.953126.800781l-2.320312.5625c-1.050781.25-2.148438.488281-3.277344.71875-.851562.179687-1.707031.347656-2.558594.511719-1.1875.222656-2.433593.417968-3.695312.621094-.921875.148437-1.835938.292968-2.800781.417968-1.363281.191406-2.804688.351563-4.265625.503906-.964844.105469-1.894532.214844-2.882813.308594-1.648437.144532-3.414062.257813-5.121093.359375-.90625.050781-1.757813.128907-2.679688.160157-2.722656.128906-5.539062.195312-8.492188.195312-2.949218 0-5.765624-.066406-8.488281-.195312-.921875 0-1.777343-.109376-2.679687-.160157-1.707032-.101562-3.480469-.214843-5.121094-.359375-.996094-.085937-1.9375-.203125-2.902344-.308594-1.449218-.160156-2.890625-.3125-4.265625-.503906-.9375-.125-1.824219-.269531-2.722656-.40625-1.296875-.207031-2.558594-.410156-3.796875-.640625-.851562-.15625-1.707031-.316406-2.472656-.488281-1.171875-.238281-2.3125-.484375-3.414063-.742188-.742187-.179687-1.46875-.347656-2.175781-.535156-1.085938-.273437-2.132812-.566406-3.140625-.855468-.605469-.171876-1.21875-.339844-1.792969-.519532-1.058594-.324218-2.054687-.65625-3.019531-.992187l-1.304687-.441407c-1.101563-.402343-2.136719-.792968-3.109376-1.195312l-.5-.160156c16.246094-6.132813 33.53125-9.03125 50.890626-8.535156zm-85.632813 76.800781-.851563.339843c-.855468.34375-1.707031.675782-2.628906 1.015626-.503906.179687-1.039062.351562-1.5625.53125-.894531.304687-1.816406.613281-2.78125.910156l-1.9375.5625c-.972656.285156-1.980468.554687-3.027344.855468-.726562.1875-1.476562.367188-2.238281.546876-1.082031.253906-2.21875.503906-3.410156.734374-.855469.167969-1.65625.339844-2.519531.503907-1.203125.21875-2.464844.425781-3.746094.621093-.914062.144532-1.816406.289063-2.765625.417969-1.371094.1875-2.816406.351563-4.265625.503907-.957031.101562-1.886719.222656-2.875.308593-1.65625.144531-3.414062.253907-5.121094.355469-.894531.050781-1.707031.128906-2.660156.164062-2.722656.128907-5.539062.195313-8.492188.195313-2.953124 0-5.769531-.066406-8.492187-.195313-.921875 0-1.773437-.113281-2.679687-.164062-1.707032-.101562-3.480469-.210938-5.117188-.355469-1-.085937-1.9375-.207031-2.902344-.308593-1.449218-.164063-2.894531-.316407-4.265625-.503907-.941406-.128906-1.828125-.273437-2.722656-.410156-1.296875-.203125-2.5625-.410156-3.796875-.640625-.855469-.152344-1.664062-.316406-2.476562-.484375-1.167969-.238281-2.3125-.488281-3.414063-.742187-.742187-.179688-1.464844-.351563-2.175781-.539063-1.082032-.273437-2.132813-.5625-3.140625-.851563-.605469-.171874-1.21875-.34375-1.789063-.523437-1.058594-.324219-2.058594-.65625-3.023437-.988281l-1.304688-.445313c-1.101562-.398437-2.132812-.792969-3.105469-1.191406l-.503906-.222656c16.246094-6.132813 33.535156-9.03125 50.894532-8.535157 17.359374-.492187 34.648437 2.40625 50.898437 8.535157zm-264.8125-119.46875h69.425781c.820313 5.878906 2.425782 11.617187 4.769532 17.066406h-78.964844c2.34375-5.449219 3.949218-11.1875 4.769531-17.066406zm-24.875-51.199219h119.132813c-11.269532 8.734375-19.695313 20.613281-24.21875 34.132812h-70.65625c-4.527344-13.527343-12.972657-25.40625-24.257813-34.132812zm59.585937 315.734375c-68.90625 0-102.398437-34.195313-102.398437-104.535156 0-55.578125 21.683594-83.746094 40.804687-108.601563 4.421876-5.769531 8.75-11.453125 12.640626-17.265625h97.910156c3.890625 5.8125 8.199218 11.496094 12.636718 17.265625 19.125 24.855469 40.808594 53.023438 40.808594 108.601563 0 70.339843-33.496094 104.535156-102.402344 104.535156zm119.46875-12.9375v-14.957031c.410157.1875.894532.367187 1.320313.542968.914063.394532 1.828125.777344 2.816406 1.171876.667969.253906 1.382813.511718 2.082031.765624.984376.359376 1.980469.71875 3.046876 1.066407.792968.265625 1.621093.523437 2.449218.777343 1.101563.34375 2.21875.667969 3.414063.992188.90625.253906 1.835937.492188 2.78125.730469 1.230469.316406 2.492187.609375 3.789062.898437 1.015625.222656 2.023438.441406 3.082031.648438 1.382813.28125 2.824219.527344 4.265626.777344 1.09375.1875 2.167968.375 3.3125.535156 1.585937.238281 3.257812.4375 4.9375.632812 1.128906.128906 2.230468.273438 3.414062.382813 1.9375.1875 3.976562.324219 5.972656.453125 1.042969.066406 2.03125.164062 3.109375.214844 3.171875.144531 6.457031.238281 9.90625.238281 3.445313 0 6.945313-.09375 10.238281-.25.402344 0 .769532-.058594 1.171876-.082031 2.925781-.15625 5.757812-.359376 8.453124-.632813 13.742188-1.101563 27.214844-4.410156 39.902344-9.796875v14.882812c-6.613281 4.0625-25.042968 12.945313-59.730468 12.945313-34.691407 0-53.179688-8.910156-59.734376-12.9375zm196.265626 12.9375c-34.746094 0-53.179688-8.910156-59.734376-12.9375v-14.957031c.410157.1875.855469.367187 1.324219.542968.914063.394532 1.824219.777344 2.816407 1.171876.664062.253906 1.382812.511718 2.082031.765624.988281.359376 1.980469.71875 3.039062 1.066407.800781.265625 1.628907.523437 2.472657.777343 1.09375.34375 2.203124.667969 3.414062.992188.914062.253906 1.84375.492188 2.796875.742188 1.222656.304687 2.476563.597656 3.773437.851562 1.015626.222656 2.039063.445312 3.097657.65625 1.375.273438 2.808593.523438 4.265625.769531 1.101562.1875 2.183594.375 3.335937.539063 1.582031.238281 3.246094.433594 4.910157.621094 1.140624.136718 2.242187.28125 3.410156.390624 1.929687.191407 3.960937.324219 5.976562.453126 1.039063.070312 2.039063.164062 3.113282.214843 3.175781.144531 6.460937.238281 9.90625.238281 3.449218 0 6.945312-.09375 10.242187-.246093.398437 0 .757813-.0625 1.148437-.078125 16.613282-.484375 33-4.007813 48.34375-10.394532v14.875c-6.613281 4.0625-25.046874 12.945313-59.734374 12.945313zm0 0"/><path d="m435.304688 179.253906c-4.710938 0-8.53125 3.820313-8.53125 8.53125v17.066406c0 4.714844 3.820312 8.535157 8.53125 8.535157 4.714843 0 8.535156-3.820313 8.535156-8.535157v-17.066406c0-4.710937-3.820313-8.53125-8.535156-8.53125zm0 0"/><path d="m443.839844 136.585938c0-4.714844-3.820313-8.535157-8.535156-8.535157-4.710938 0-8.53125 3.820313-8.53125 8.535157v17.066406c0 4.714844 3.820312 8.535156 8.53125 8.535156 4.714843 0 8.535156-3.820312 8.535156-8.535156zm0 0"/><path d="m443.839844 85.386719c0-4.714844-3.820313-8.535157-8.535156-8.535157-4.710938 0-8.53125 3.820313-8.53125 8.535157v17.066406c0 4.710937 3.820312 8.53125 8.53125 8.53125 4.714843 0 8.535156-3.820313 8.535156-8.53125zm0 0"/><path d="m256.105469 17.121094c4.710937 0 8.53125-3.824219 8.53125-8.535156 0-4.714844-3.820313-8.5351568-8.53125-8.5351568h-17.066407c-4.714843 0-8.535156 3.8203128-8.535156 8.5351568 0 4.710937 3.820313 8.535156 8.535156 8.535156zm0 0"/><path d="m204.90625 17.121094c4.710938 0 8.53125-3.824219 8.53125-8.535156 0-4.714844-3.820312-8.5351568-8.53125-8.5351568h-17.066406c-4.714844 0-8.535156 3.8203128-8.535156 8.5351568 0 4.710937 3.820312 8.535156 8.535156 8.535156zm0 0"/><path d="m111.039062 107.453125-11.035156-11.035156c-3.347656-3.230469-8.667968-3.1875-11.960937.105469-3.292969 3.292968-3.339844 8.613281-.105469 11.960937l25.601562 25.601563c.792969.789062 1.738282 1.417968 2.773438 1.84375 2.085938.875 4.433594.875 6.519531 0 1.035157-.425782 1.976563-1.054688 2.773438-1.84375l25.597656-25.601563c3.234375-3.347656 3.1875-8.667969-.101563-11.960937-3.292968-3.292969-8.613281-3.335938-11.964843-.105469l-11.03125 11.035156v-22.066406c0-4.714844-3.820313-8.535157-8.535157-8.535157-4.710937 0-8.53125 3.820313-8.53125 8.535157zm0 0"/><path d="m307.304688 17.121094c4.714843 0 8.535156-3.824219 8.535156-8.535156 0-4.714844-3.820313-8.5351568-8.535156-8.5351568h-17.066407c-4.710937 0-8.535156 3.8203128-8.535156 8.5351568 0 4.710937 3.824219 8.535156 8.535156 8.535156zm0 0"/><path d="m358.503906 17.121094c4.714844 0 8.535156-3.824219 8.535156-8.535156 0-4.714844-3.820312-8.5351568-8.535156-8.5351568h-17.066406c-4.710938 0-8.53125 3.8203128-8.53125 8.5351568 0 4.710937 3.820312 8.535156 8.53125 8.535156zm0 0"/><path d="m443.839844 25.652344c0-14.136719-11.464844-25.6015628-25.601563-25.6015628h-25.601562c-4.710938 0-8.53125 3.8203128-8.53125 8.5351568 0 4.710937 3.820312 8.535156 8.53125 8.535156h25.601562c4.714844 0 8.535157 3.820312 8.535157 8.53125v25.601562c0 4.710938 3.820312 8.53125 8.53125 8.53125 4.714843 0 8.535156-3.820312 8.535156-8.53125zm0 0"/><path d="m119.570312 59.785156c4.714844 0 8.535157-3.820312 8.535157-8.53125v-25.601562c0-4.710938 3.820312-8.53125 8.53125-8.53125h17.066406c4.714844 0 8.535156-3.824219 8.535156-8.535156 0-4.714844-3.820312-8.5351568-8.535156-8.5351568h-17.066406c-14.136719 0-25.597657 11.4648438-25.597657 25.6015628v25.601562c0 4.710938 3.820313 8.53125 8.53125 8.53125zm0 0"/><path d="m174.007812 338.476562c-.0625-.058593-.078124-.136718-.128906-.195312-.050781-.0625-.136718-.070312-.199218-.128906-29.910157-29.820313-78.308594-29.820313-108.21875 0-.058594.058594-.136719.078125-.195313.128906s-.066406.136719-.128906.195312c-29.820313 29.910157-29.820313 78.308594 0 108.21875.0625.058594.078125.136719.128906.195313.050781.0625.136719.070313.195313.128906 29.910156 29.820313 78.308593 29.820313 108.21875 0 .0625-.058593.136718-.078125.199218-.128906.058594-.050781.066406-.136719.128906-.195313 29.820313-29.910156 29.820313-78.308593 0-108.21875zm-6.648437 89.8125-12.210937-12.210937c3.023437-4.539063 5.140624-9.617187 6.238281-14.957031h17.234375c-1.410156 9.855468-5.285156 19.203125-11.261719 27.167968zm-106.839844-27.167968h17.238281c1.101563 5.339844 3.21875 10.417968 6.246094 14.957031l-12.21875 12.210937c-5.976562-7.964843-9.851562-17.3125-11.265625-27.167968zm11.265625-44.238282 12.210938 12.210938c-3.023438 4.539062-5.140625 9.617188-6.238282 14.957031h-17.238281c1.414063-9.855469 5.289063-19.203125 11.265625-27.167969zm47.785156 61.304688c-10.351562 0-19.6875-6.238281-23.648437-15.804688-3.964844-9.566406-1.773437-20.578124 5.546875-27.898437 7.324219-7.320313 18.332031-9.511719 27.898438-5.550781 9.566406 3.964844 15.804687 13.296875 15.804687 23.652344 0 14.136718-11.460937 25.601562-25.601563 25.601562zm23.492188-61.160156c-4.535156-3.027344-9.613281-5.152344-14.957031-6.253906v-17.238282c9.859375 1.414063 19.203125 5.285156 27.167969 11.265625zm-32.023438-6.253906c-5.34375 1.097656-10.421874 3.21875-14.960937 6.246093l-12.210937-12.21875c7.96875-5.980469 17.3125-9.851562 27.171874-11.265625zm-14.960937 77.363281c4.539063 3.03125 9.617187 5.15625 14.960937 6.261719v17.238281c-9.859374-1.414063-19.203124-5.285157-27.171874-11.265625zm32.027344 6.261719c5.339843-1.097657 10.421875-3.21875 14.957031-6.246094l12.210938 12.21875c-7.964844 5.980468-17.308594 9.851562-27.167969 11.265625zm33.28125-50.347657c-1.101563-5.339843-3.222657-10.417969-6.25-14.957031l12.222656-12.210938c5.976563 7.964844 9.851563 17.3125 11.261719 27.167969zm0 0"/></svg>