<?xml version="1.0" encoding="utf-8"?>
<!-- Generator: Adobe Illustrator 23.0.2, SVG Export Plug-In . SVG Version: 6.00 Build 0)  -->
<svg version="1.1" id="Layer_1" xmlns="http://www.w3.org/2000/svg" xmlns:xlink="http://www.w3.org/1999/xlink" x="0px" y="0px"
	 viewBox="0 0 1080 590" style="enable-background:new 0 0 1080 590;" xml:space="preserve">
<style type="text/css">
	.st0{fill:url(#SVGID_1_);stroke:#F9F900;stroke-miterlimit:10;}
	.st1{opacity:0.5;}
	.st2{opacity:0.3;fill:none;stroke:#00CF71;stroke-width:6;stroke-miterlimit:10;}
	.st3{fill:none;stroke:#00C67C;stroke-width:2;stroke-miterlimit:10;stroke-dasharray:2.9955,9.9852;}
	.st4{fill:#E1A63D;}
	.st5{fill:none;stroke:#6D6B32;stroke-miterlimit:10;}
	.st6{fill:none;stroke:#F9F900;stroke-miterlimit:10;}
	.st7{opacity:0.4;}
	.st8{fill:none;stroke:#050305;stroke-width:5;stroke-miterlimit:10;}
	.st9{fill:none;stroke:#070507;stroke-width:4.9577;stroke-miterlimit:10;}
	.st10{fill:none;stroke:#0A080A;stroke-width:4.9155;stroke-miterlimit:10;}
	.st11{fill:none;stroke:#0C0A0C;stroke-width:4.8732;stroke-miterlimit:10;}
	.st12{fill:none;stroke:#0E0C0E;stroke-width:4.831;stroke-miterlimit:10;}
	.st13{fill:none;stroke:#100F11;stroke-width:4.7887;stroke-miterlimit:10;}
	.st14{fill:none;stroke:#131113;stroke-width:4.7465;stroke-miterlimit:10;}
	.st15{fill:none;stroke:#151315;stroke-width:4.7042;stroke-miterlimit:10;}
	.st16{fill:none;stroke:#171618;stroke-width:4.662;stroke-miterlimit:10;}
	.st17{fill:none;stroke:#1A181A;stroke-width:4.6197;stroke-miterlimit:10;}
	.st18{fill:none;stroke:#1C1A1D;stroke-width:4.5775;stroke-miterlimit:10;}
	.st19{fill:none;stroke:#1E1D1F;stroke-width:4.5352;stroke-miterlimit:10;}
	.st20{fill:none;stroke:#201F21;stroke-width:4.493;stroke-miterlimit:10;}
	.st21{fill:none;stroke:#232124;stroke-width:4.4507;stroke-miterlimit:10;}
	.st22{fill:none;stroke:#252426;stroke-width:4.4085;stroke-miterlimit:10;}
	.st23{fill:none;stroke:#272628;stroke-width:4.3662;stroke-miterlimit:10;}
	.st24{fill:none;stroke:#2A282B;stroke-width:4.3239;stroke-miterlimit:10;}
	.st25{fill:none;stroke:#2C2B2D;stroke-width:4.2817;stroke-miterlimit:10;}
	.st26{fill:none;stroke:#2E2D2F;stroke-width:4.2394;stroke-miterlimit:10;}
	.st27{fill:none;stroke:#302F32;stroke-width:4.1972;stroke-miterlimit:10;}
	.st28{fill:none;stroke:#333234;stroke-width:4.1549;stroke-miterlimit:10;}
	.st29{fill:none;stroke:#353436;stroke-width:4.1127;stroke-miterlimit:10;}
	.st30{fill:none;stroke:#373639;stroke-width:4.0704;stroke-miterlimit:10;}
	.st31{fill:none;stroke:#39393B;stroke-width:4.0282;stroke-miterlimit:10;}
	.st32{fill:none;stroke:#3C3B3D;stroke-width:3.9859;stroke-miterlimit:10;}
	.st33{fill:none;stroke:#3E3D40;stroke-width:3.9437;stroke-miterlimit:10;}
	.st34{fill:none;stroke:#404042;stroke-width:3.9014;stroke-miterlimit:10;}
	.st35{fill:none;stroke:#434245;stroke-width:3.8592;stroke-miterlimit:10;}
	.st36{fill:none;stroke:#454447;stroke-width:3.8169;stroke-miterlimit:10;}
	.st37{fill:none;stroke:#474749;stroke-width:3.7746;stroke-miterlimit:10;}
	.st38{fill:none;stroke:#49494C;stroke-width:3.7324;stroke-miterlimit:10;}
	.st39{fill:none;stroke:#4C4B4E;stroke-width:3.6901;stroke-miterlimit:10;}
	.st40{fill:none;stroke:#4E4E50;stroke-width:3.6479;stroke-miterlimit:10;}
	.st41{fill:none;stroke:#505053;stroke-width:3.6056;stroke-miterlimit:10;}
	.st42{fill:none;stroke:#535255;stroke-width:3.5634;stroke-miterlimit:10;}
	.st43{fill:none;stroke:#555557;stroke-width:3.5211;stroke-miterlimit:10;}
	.st44{fill:none;stroke:#57575A;stroke-width:3.4789;stroke-miterlimit:10;}
	.st45{fill:none;stroke:#595A5C;stroke-width:3.4366;stroke-miterlimit:10;}
	.st46{fill:none;stroke:#5C5C5E;stroke-width:3.3944;stroke-miterlimit:10;}
	.st47{fill:none;stroke:#5E5E61;stroke-width:3.3521;stroke-miterlimit:10;}
	.st48{fill:none;stroke:#606163;stroke-width:3.3099;stroke-miterlimit:10;}
	.st49{fill:none;stroke:#636365;stroke-width:3.2676;stroke-miterlimit:10;}
	.st50{fill:none;stroke:#656568;stroke-width:3.2254;stroke-miterlimit:10;}
	.st51{fill:none;stroke:#67686A;stroke-width:3.1831;stroke-miterlimit:10;}
	.st52{fill:none;stroke:#696A6C;stroke-width:3.1408;stroke-miterlimit:10;}
	.st53{fill:none;stroke:#6C6C6F;stroke-width:3.0986;stroke-miterlimit:10;}
	.st54{fill:none;stroke:#6E6F71;stroke-width:3.0563;stroke-miterlimit:10;}
	.st55{fill:none;stroke:#707174;stroke-width:3.0141;stroke-miterlimit:10;}
	.st56{fill:none;stroke:#737376;stroke-width:2.9718;stroke-miterlimit:10;}
	.st57{fill:none;stroke:#757678;stroke-width:2.9296;stroke-miterlimit:10;}
	.st58{fill:none;stroke:#77787B;stroke-width:2.8873;stroke-miterlimit:10;}
	.st59{fill:none;stroke:#797A7D;stroke-width:2.8451;stroke-miterlimit:10;}
	.st60{fill:none;stroke:#7C7D7F;stroke-width:2.8028;stroke-miterlimit:10;}
	.st61{fill:none;stroke:#7E7F82;stroke-width:2.7606;stroke-miterlimit:10;}
	.st62{fill:none;stroke:#808184;stroke-width:2.7183;stroke-miterlimit:10;}
	.st63{fill:none;stroke:#828486;stroke-width:2.6761;stroke-miterlimit:10;}
	.st64{fill:none;stroke:#858689;stroke-width:2.6338;stroke-miterlimit:10;}
	.st65{fill:none;stroke:#87888B;stroke-width:2.5915;stroke-miterlimit:10;}
	.st66{fill:none;stroke:#898B8D;stroke-width:2.5493;stroke-miterlimit:10;}
	.st67{fill:none;stroke:#8C8D90;stroke-width:2.507;stroke-miterlimit:10;}
	.st68{fill:none;stroke:#8E8F92;stroke-width:2.4648;stroke-miterlimit:10;}
	.st69{fill:none;stroke:#909294;stroke-width:2.4225;stroke-miterlimit:10;}
	.st70{fill:none;stroke:#929497;stroke-width:2.3803;stroke-miterlimit:10;}
	.st71{fill:none;stroke:#959699;stroke-width:2.338;stroke-miterlimit:10;}
	.st72{fill:none;stroke:#97999C;stroke-width:2.2958;stroke-miterlimit:10;}
	.st73{fill:none;stroke:#999B9E;stroke-width:2.2535;stroke-miterlimit:10;}
	.st74{fill:none;stroke:#9C9DA0;stroke-width:2.2113;stroke-miterlimit:10;}
	.st75{fill:none;stroke:#9EA0A3;stroke-width:2.169;stroke-miterlimit:10;}
	.st76{fill:none;stroke:#A0A2A5;stroke-width:2.1268;stroke-miterlimit:10;}
	.st77{fill:none;stroke:#A2A4A7;stroke-width:2.0845;stroke-miterlimit:10;}
	.st78{fill:none;stroke:#A5A7AA;stroke-width:2.0423;stroke-miterlimit:10;}
	.st79{fill:none;stroke:#A7A9AC;stroke-width:2;stroke-miterlimit:10;}
	.st80{opacity:0.2;}
	.st81{filter:url(#Adobe_OpacityMaskFilter);}
	.st82{fill:none;stroke:#FFD879;stroke-width:3;stroke-miterlimit:10;}
	.st83{fill:url(#SVGID_3_);stroke:#FFD879;stroke-miterlimit:10;}
	.st84{fill:url(#SVGID_4_);stroke:#FFD879;stroke-miterlimit:10;}
	.st85{fill:url(#SVGID_5_);stroke:#FFD879;stroke-miterlimit:10;}
	.st86{fill:url(#SVGID_6_);stroke:#FFD879;stroke-miterlimit:10;}
	.st87{fill:url(#SVGID_7_);stroke:#FFD879;stroke-miterlimit:10;}
	.st88{fill:url(#SVGID_8_);stroke:#FFD879;stroke-miterlimit:10;}
	.st89{fill:url(#SVGID_9_);stroke:#FFD879;stroke-miterlimit:10;}
	.st90{fill:none;}
</style>
<radialGradient id="SVGID_1_" cx="540" cy="295" r="467.1661" gradientTransform="matrix(1 0 0 0.5626 0 129.0215)" gradientUnits="userSpaceOnUse">
	<stop  offset="0.1921" style="stop-color:#009221"/>
	<stop  offset="1" style="stop-color:#006C17"/>
</radialGradient>
<path class="st0" d="M1012,306c0,119.3-96.7,216-216,216H284c-119.3,0-216-96.7-216-216v-22c0-119.3,96.7-216,216-216h512
	c119.3,0,216,96.7,216,216V306z"/>
<g class="st1">
	<g>
		<image style="overflow:visible;" width="1018" height="528" xlink:href="B1802383.png"  transform="matrix(1 0 0 1 31 31)">
		</image>
	</g>
</g>
<path class="st2" d="M284,486c-99.3,0-180-80.7-180-180v-22c0-99.3,80.7-180,180-180h512c99.3,0,180,80.7,180,180v22
	c0,99.3-80.7,180-180,180H284z"/>
<g>
	<path class="st3" d="M284,510c-112.5,0-204-91.5-204-204v-22c0-112.5,91.5-204,204-204h512c112.5,0,204,91.5,204,204v22
		c0,112.5-91.5,204-204,204H284z"/>
</g>
<g>
	
		<image style="overflow:visible;opacity:0.75;" width="1020" height="530" xlink:href="B1802381.png"  transform="matrix(1 0 0 1 30 30)">
	</image>
	<g>
		<path class="st4" d="M964.3,115.7C919.3,70.8,859.6,46,796,46H284c-63.6,0-123.3,24.8-168.3,69.7C70.8,160.7,46,220.4,46,284v22
			c0,63.6,24.8,123.3,69.7,168.3c45,45,104.7,69.7,168.3,69.7h512c63.6,0,123.3-24.8,168.3-69.7c45-45,69.7-104.7,69.7-168.3v-22
			C1034,220.4,1009.2,160.7,964.3,115.7z M1012,306c0,119.3-96.7,216-216,216H284c-119.3,0-216-96.7-216-216v-22
			c0-119.3,96.7-216,216-216c0,0,105.7-0.9,112,0c5.8,0.8,6.5,3.4,6.5,3.4l22.3,42.4c0,0,2,3.8,6.9,4.2c3.4,0,213.7,0,217,0
			c3.3,0,4.8-0.9,6.5-4.1c1.7-3.2,20.1-38.1,22.3-42.4c1.4-2.7,5.3-3.4,6.8-3.6c-0.3,0-0.5,0-0.6,0c0.3,0,0.5,0,0.7,0
			c0.6-0.1,0.8,0,0,0c0,0,0,0-0.1,0c9.6,0,111.7,0,111.7,0c119.3,0,216,96.7,216,216V306z"/>
		<path class="st5" d="M964.3,115.7C919.3,70.8,859.6,46,796,46H284c-63.6,0-123.3,24.8-168.3,69.7C70.8,160.7,46,220.4,46,284v22
			c0,63.6,24.8,123.3,69.7,168.3c45,45,104.7,69.7,168.3,69.7h512c63.6,0,123.3-24.8,168.3-69.7c45-45,69.7-104.7,69.7-168.3v-22
			C1034,220.4,1009.2,160.7,964.3,115.7z M1012,306c0,119.3-96.7,216-216,216H284c-119.3,0-216-96.7-216-216v-22
			c0-119.3,96.7-216,216-216c0,0,105.7-0.9,112,0c5.8,0.8,6.5,3.4,6.5,3.4l22.3,42.4c0,0,2,3.8,6.9,4.2c3.4,0,213.7,0,217,0
			c3.3,0,4.8-0.9,6.5-4.1c1.7-3.2,20.1-38.1,22.3-42.4c1.4-2.7,5.3-3.4,6.8-3.6c-0.3,0-0.5,0-0.6,0c0.3,0,0.5,0,0.7,0
			c0.6-0.1,0.8,0,0,0c0,0,0,0-0.1,0c9.6,0,111.7,0,111.7,0c119.3,0,216,96.7,216,216V306z"/>
	</g>
</g>
<path class="st6" d="M431.6,114"/>
<g class="st7">
	<image style="overflow:visible;" width="1062" height="572" xlink:href="B1802387.png"  transform="matrix(1 0 0 1 9 9)">
	</image>
</g>
<g>
	<image style="overflow:visible;" width="1112" height="622" xlink:href="B1802380.png"  transform="matrix(1 0 0 1 -16 -16)">
	</image>
	<g>
		<g>
			<path class="st8" d="M284,585c-74.5,0-144.6-29-197.3-81.7C34,450.6,5,380.5,5,306v-22c0-74.5,29-144.6,81.7-197.3
				C139.4,34,209.5,5,284,5h512c74.5,0,144.6,29,197.3,81.7C1046,139.4,1075,209.5,1075,284v22c0,74.5-29,144.6-81.7,197.3
				C940.6,556,870.5,585,796,585H284z"/>
			<path class="st9" d="M284,584.4c-74.4,0-144.3-29-196.9-81.5C34.5,450.3,5.6,380.4,5.6,306v-22c0-74.4,29-144.3,81.5-196.9
				C139.7,34.5,209.6,5.6,284,5.6h512c74.4,0,144.3,29,196.9,81.5c52.6,52.6,81.5,122.5,81.5,196.9v22c0,74.4-29,144.3-81.5,196.9
				c-52.6,52.6-122.5,81.5-196.9,81.5H284z"/>
			<path class="st10" d="M284,583.8c-74.2,0-144-28.9-196.5-81.4C35.1,450,6.2,380.2,6.2,306v-22c0-74.2,28.9-144,81.4-196.5
				C140,35.1,209.8,6.2,284,6.2h512c74.2,0,144,28.9,196.5,81.4c52.5,52.5,81.4,122.3,81.4,196.5v22c0,74.2-28.9,144-81.4,196.5
				C940,554.9,870.2,583.8,796,583.8H284z"/>
			<path class="st11" d="M284,583.3c-74.1,0-143.7-28.8-196.1-81.2C35.6,449.7,6.7,380.1,6.7,306v-22c0-74.1,28.8-143.7,81.2-196.1
				C140.3,35.6,209.9,6.7,284,6.7h512c74.1,0,143.7,28.8,196.1,81.2s81.2,122,81.2,196.1v22c0,74.1-28.8,143.7-81.2,196.1
				c-52.4,52.4-122,81.2-196.1,81.2H284z"/>
			<path class="st12" d="M284,582.7c-73.9,0-143.4-28.8-195.6-81c-52.3-52.3-81-121.7-81-195.6v-22c0-73.9,28.8-143.4,81-195.6
				c52.3-52.3,121.7-81,195.6-81h512c73.9,0,143.4,28.8,195.6,81c52.3,52.3,81,121.7,81,195.6v22c0,73.9-28.8,143.4-81,195.6
				c-52.3,52.3-121.7,81-195.6,81H284z"/>
			<path class="st13" d="M284,582.1c-73.8,0-143.1-28.7-195.2-80.9C36.6,449.1,7.9,379.8,7.9,306v-22c0-73.8,28.7-143.1,80.9-195.2
				C140.9,36.6,210.2,7.9,284,7.9h512c73.8,0,143.1,28.7,195.2,80.9c52.2,52.2,80.9,121.5,80.9,195.2v22
				c0,73.8-28.7,143.1-80.9,195.2c-52.1,52.2-121.5,80.9-195.2,80.9H284z"/>
			<path class="st14" d="M284,581.5c-73.6,0-142.8-28.7-194.8-80.7c-52-52-80.7-121.2-80.7-194.8v-22c0-73.6,28.7-142.8,80.7-194.8
				c52-52,121.2-80.7,194.8-80.7h512c73.6,0,142.8,28.7,194.8,80.7c52,52,80.7,121.2,80.7,194.8v22c0,73.6-28.7,142.8-80.7,194.8
				c-52,52-121.2,80.7-194.8,80.7H284z"/>
			<path class="st15" d="M284,581c-73.4,0-142.5-28.6-194.4-80.5C37.6,448.5,9,379.4,9,306v-22c0-73.4,28.6-142.5,80.5-194.4
				C141.5,37.6,210.6,9,284,9h512c73.4,0,142.5,28.6,194.4,80.5c51.9,51.9,80.5,121,80.5,194.4v22c0,73.4-28.6,142.5-80.5,194.4
				C938.5,552.4,869.4,581,796,581H284z"/>
			<path class="st16" d="M284,580.4c-73.3,0-142.2-28.5-194-80.4C38.2,448.2,9.6,379.3,9.6,306v-22c0-73.3,28.5-142.2,80.4-194
				C141.8,38.2,210.7,9.6,284,9.6h512c73.3,0,142.2,28.5,194,80.4c51.8,51.8,80.4,120.7,80.4,194v22c0,73.3-28.5,142.2-80.4,194
				c-51.8,51.8-120.7,80.4-194,80.4H284z"/>
			<path class="st17" d="M284,579.8c-73.1,0-141.9-28.5-193.6-80.2C38.7,447.9,10.2,379.1,10.2,306v-22
				c0-73.1,28.5-141.9,80.2-193.6C142.1,38.7,210.9,10.2,284,10.2h512c73.1,0,141.9,28.5,193.6,80.2
				c51.7,51.7,80.2,120.5,80.2,193.6v22c0,73.1-28.5,141.9-80.2,193.6c-51.7,51.7-120.5,80.2-193.6,80.2H284z"/>
			<path class="st18" d="M284,579.2c-73,0-141.6-28.4-193.2-80c-51.6-51.6-80-120.2-80-193.2v-22c0-73,28.4-141.6,80-193.2
				c51.6-51.6,120.2-80,193.2-80h512c73,0,141.6,28.4,193.2,80c51.6,51.6,80,120.2,80,193.2v22c0,73-28.4,141.6-80,193.2
				c-51.6,51.6-120.2,80-193.2,80H284z"/>
			<path class="st19" d="M284,578.6c-72.8,0-141.3-28.4-192.8-79.9c-51.5-51.5-79.9-120-79.9-192.8v-22
				c0-72.8,28.4-141.3,79.9-192.8c51.5-51.5,120-79.9,192.8-79.9h512c72.8,0,141.3,28.4,192.8,79.9c51.5,51.5,79.9,120,79.9,192.8
				v22c0,72.8-28.4,141.3-79.9,192.8c-51.5,51.5-120,79.9-192.8,79.9H284z"/>
			<path class="st20" d="M284,578.1c-72.7,0-141-28.3-192.4-79.7C40.2,447,11.9,378.7,11.9,306v-22c0-72.7,28.3-141,79.7-192.4
				C143,40.2,211.3,11.9,284,11.9h512c72.7,0,141,28.3,192.4,79.7c51.4,51.4,79.7,119.7,79.7,192.4v22c0,72.7-28.3,141-79.7,192.4
				C937,549.8,868.7,578.1,796,578.1H284z"/>
			<path class="st21" d="M284,577.5c-72.5,0-140.7-28.2-192-79.5c-51.3-51.3-79.5-119.5-79.5-192v-22c0-72.5,28.2-140.7,79.5-192
				c51.3-51.3,119.5-79.5,192-79.5h512c72.5,0,140.7,28.2,192,79.5c51.3,51.3,79.5,119.5,79.5,192v22c0,72.5-28.2,140.7-79.5,192
				c-51.3,51.3-119.5,79.5-192,79.5H284z"/>
			<path class="st22" d="M284,576.9c-72.4,0-140.4-28.2-191.6-79.3C41.3,446.4,13.1,378.4,13.1,306v-22
				c0-72.4,28.2-140.4,79.3-191.6C143.6,41.3,211.6,13.1,284,13.1h512c72.4,0,140.4,28.2,191.6,79.3s79.3,119.2,79.3,191.6v22
				c0,72.4-28.2,140.4-79.3,191.6c-51.2,51.2-119.2,79.3-191.6,79.3H284z"/>
			<path class="st23" d="M284,576.3c-72.2,0-140.1-28.1-191.2-79.2C41.8,446.1,13.7,378.2,13.7,306v-22
				c0-72.2,28.1-140.1,79.2-191.2C143.9,41.8,211.8,13.7,284,13.7h512c72.2,0,140.1,28.1,191.2,79.2
				c51.1,51.1,79.2,118.9,79.2,191.2v22c0,72.2-28.1,140.1-79.2,191.2c-51.1,51.1-118.9,79.2-191.2,79.2H284z"/>
			<path class="st24" d="M284,575.8c-72.1,0-139.8-28.1-190.7-79c-51-51-79-118.7-79-190.7v-22c0-72.1,28.1-139.8,79-190.7
				c51-51,118.7-79,190.7-79h512c72.1,0,139.8,28.1,190.7,79s79,118.7,79,190.7v22c0,72.1-28.1,139.8-79,190.7
				c-51,51-118.7,79-190.7,79H284z"/>
			<path class="st25" d="M284,575.2c-71.9,0-139.5-28-190.3-78.8C42.8,445.5,14.8,377.9,14.8,306v-22c0-71.9,28-139.5,78.8-190.3
				C144.5,42.8,212.1,14.8,284,14.8h512c71.9,0,139.5,28,190.3,78.8c50.8,50.8,78.8,118.4,78.8,190.3v22c0,71.9-28,139.5-78.8,190.3
				c-50.8,50.8-118.4,78.8-190.3,78.8H284z"/>
			<path class="st26" d="M284,574.6c-71.7,0-139.2-27.9-189.9-78.7C43.3,445.2,15.4,377.7,15.4,306v-22
				c0-71.7,27.9-139.2,78.7-189.9C144.8,43.3,212.3,15.4,284,15.4h512c71.7,0,139.2,27.9,189.9,78.7s78.7,118.2,78.7,189.9v22
				c0,71.7-27.9,139.2-78.7,189.9c-50.7,50.7-118.2,78.7-189.9,78.7H284z"/>
			<path class="st27" d="M284,574c-71.6,0-138.9-27.9-189.5-78.5C43.9,444.9,16,377.6,16,306v-22c0-71.6,27.9-138.9,78.5-189.5
				C145.1,43.9,212.4,16,284,16h512c71.6,0,138.9,27.9,189.5,78.5c50.6,50.6,78.5,117.9,78.5,189.5v22c0,71.6-27.9,138.9-78.5,189.5
				C934.9,546.1,867.6,574,796,574H284z"/>
			<path class="st28" d="M284,573.5c-71.4,0-138.6-27.8-189.1-78.3C44.4,444.6,16.5,377.4,16.5,306v-22
				c0-71.4,27.8-138.6,78.3-189.1C145.4,44.4,212.6,16.5,284,16.5h512c71.4,0,138.6,27.8,189.1,78.3s78.3,117.7,78.3,189.1v22
				c0,71.4-27.8,138.6-78.3,189.1c-50.5,50.5-117.7,78.3-189.1,78.3H284z"/>
			<path class="st29" d="M284,572.9c-71.3,0-138.3-27.8-188.7-78.2C44.9,444.3,17.1,377.3,17.1,306v-22
				c0-71.3,27.8-138.3,78.2-188.7C145.7,44.9,212.7,17.1,284,17.1h512c71.3,0,138.3,27.8,188.7,78.2
				c50.4,50.4,78.2,117.4,78.2,188.7v22c0,71.3-27.8,138.3-78.2,188.7c-50.4,50.4-117.4,78.2-188.7,78.2H284z"/>
			<path class="st30" d="M284,572.3c-71.1,0-138-27.7-188.3-78c-50.3-50.3-78-117.2-78-188.3v-22c0-71.1,27.7-138,78-188.3
				c50.3-50.3,117.2-78,188.3-78h512c71.1,0,138,27.7,188.3,78s78,117.2,78,188.3v22c0,71.1-27.7,138-78,188.3
				c-50.3,50.3-117.2,78-188.3,78H284z"/>
			<path class="st31" d="M284,571.7c-71,0-137.7-27.6-187.9-77.8C45.9,443.7,18.3,377,18.3,306v-22c0-71,27.6-137.7,77.8-187.9
				C146.3,45.9,213,18.3,284,18.3h512c71,0,137.7,27.6,187.9,77.8c50.2,50.2,77.8,116.9,77.8,187.9v22c0,71-27.6,137.7-77.8,187.9
				C933.7,544.1,867,571.7,796,571.7H284z"/>
			<path class="st32" d="M284,571.1c-70.8,0-137.4-27.6-187.5-77.7C46.4,443.4,18.9,376.8,18.9,306v-22
				c0-70.8,27.6-137.4,77.7-187.5C146.6,46.4,213.2,18.9,284,18.9h512c70.8,0,137.4,27.6,187.5,77.7s77.7,116.7,77.7,187.5v22
				c0,70.8-27.6,137.4-77.7,187.5c-50.1,50.1-116.7,77.7-187.5,77.7H284z"/>
			<path class="st33" d="M284,570.6c-70.7,0-137.1-27.5-187.1-77.5c-50-50-77.5-116.4-77.5-187.1v-22c0-70.7,27.5-137.1,77.5-187.1
				c50-50,116.4-77.5,187.1-77.5h512c70.7,0,137.1,27.5,187.1,77.5c50,50,77.5,116.4,77.5,187.1v22c0,70.7-27.5,137.1-77.5,187.1
				c-50,50-116.4,77.5-187.1,77.5H284z"/>
			<path class="st34" d="M284,570c-70.5,0-136.8-27.5-186.7-77.3C47.5,442.8,20,376.5,20,306v-22c0-70.5,27.5-136.8,77.3-186.7
				C147.2,47.5,213.5,20,284,20h512c70.5,0,136.8,27.5,186.7,77.3S1060,213.5,1060,284v22c0,70.5-27.5,136.8-77.3,186.7
				C932.8,542.5,866.5,570,796,570H284z"/>
			<path class="st35" d="M284,569.4c-70.4,0-136.5-27.4-186.3-77.2C48,442.5,20.6,376.4,20.6,306v-22c0-70.4,27.4-136.5,77.2-186.3
				C147.5,48,213.6,20.6,284,20.6h512c70.4,0,136.5,27.4,186.3,77.2c49.8,49.8,77.2,115.9,77.2,186.3v22
				c0,70.4-27.4,136.5-77.2,186.3C932.5,542,866.4,569.4,796,569.4H284z"/>
			<path class="st36" d="M284,568.8c-70.2,0-136.2-27.3-185.8-77c-49.6-49.6-77-115.6-77-185.9v-22c0-70.2,27.3-136.2,77-185.8
				c49.6-49.6,115.6-77,185.8-77h512c70.2,0,136.2,27.3,185.8,77s77,115.6,77,185.8v22c0,70.2-27.3,136.2-77,185.9
				c-49.6,49.6-115.6,77-185.8,77H284z"/>
			<path class="st37" d="M284,568.3c-70.1,0-135.9-27.3-185.4-76.8C49,441.9,21.7,376.1,21.7,306v-22c0-70.1,27.3-135.9,76.8-185.4
				C148.1,49,213.9,21.7,284,21.7h512c70.1,0,135.9,27.3,185.4,76.8c49.5,49.5,76.8,115.4,76.8,185.4v22
				c0,70.1-27.3,135.9-76.8,185.4C931.9,541,866.1,568.3,796,568.3H284z"/>
			<path class="st38" d="M284,567.7c-69.9,0-135.6-27.2-185-76.6c-49.4-49.4-76.6-115.1-76.6-185v-22c0-69.9,27.2-135.6,76.6-185
				c49.4-49.4,115.1-76.6,185-76.6h512c69.9,0,135.6,27.2,185,76.6s76.6,115.1,76.6,185v22c0,69.9-27.2,135.6-76.6,185
				c-49.4,49.4-115.1,76.6-185,76.6H284z"/>
			<path class="st39" d="M284,567.1c-69.7,0-135.3-27.2-184.6-76.5C50.1,441.3,22.9,375.7,22.9,306v-22
				c0-69.7,27.2-135.3,76.5-184.6C148.7,50.1,214.3,22.9,284,22.9h512c69.7,0,135.3,27.2,184.6,76.5
				c49.3,49.3,76.5,114.9,76.5,184.6v22c0,69.7-27.2,135.3-76.5,184.6c-49.3,49.3-114.9,76.5-184.6,76.5H284z"/>
			<path class="st40" d="M284,566.5c-69.6,0-135-27.1-184.2-76.3C50.6,441,23.5,375.6,23.5,306v-22c0-69.6,27.1-135,76.3-184.2
				C149,50.6,214.4,23.5,284,23.5h512c69.6,0,135,27.1,184.2,76.3c49.2,49.2,76.3,114.6,76.3,184.2v22c0,69.6-27.1,135-76.3,184.2
				C931,539.4,865.6,566.5,796,566.5H284z"/>
			<path class="st41" d="M284,565.9c-69.4,0-134.7-27-183.8-76.1C51.1,440.7,24.1,375.4,24.1,306v-22c0-69.4,27-134.7,76.1-183.8
				C149.3,51.1,214.6,24.1,284,24.1h512c69.4,0,134.7,27,183.8,76.1c49.1,49.1,76.1,114.4,76.1,183.8v22c0,69.4-27,134.7-76.1,183.8
				c-49.1,49.1-114.4,76.1-183.8,76.1H284z"/>
			<path class="st42" d="M284,565.4c-69.3,0-134.4-27-183.4-76c-49-49-76-114.1-76-183.4v-22c0-69.3,27-134.4,76-183.4
				c49-49,114.1-76,183.4-76h512c69.3,0,134.4,27,183.4,76s76,114.1,76,183.4v22c0,69.3-27,134.4-76,183.4c-49,49-114.1,76-183.4,76
				H284z"/>
			<path class="st43" d="M284,564.8c-69.1,0-134.1-26.9-183-75.8c-48.9-48.9-75.8-113.9-75.8-183v-22c0-69.1,26.9-134.1,75.8-183
				c48.9-48.9,113.9-75.8,183-75.8h512c69.1,0,134.1,26.9,183,75.8c48.9,48.9,75.8,113.9,75.8,183v22c0,69.1-26.9,134.1-75.8,183
				c-48.9,48.9-113.9,75.8-183,75.8H284z"/>
			<path class="st44" d="M284,564.2c-69,0-133.8-26.9-182.6-75.6C52.6,439.8,25.8,375,25.8,306v-22c0-69,26.9-133.8,75.6-182.6
				C150.2,52.6,215,25.8,284,25.8h512c69,0,133.8,26.9,182.6,75.6c48.8,48.8,75.6,113.6,75.6,182.6v22c0,69-26.9,133.8-75.6,182.6
				C929.8,537.4,865,564.2,796,564.2H284z"/>
			<path class="st45" d="M284,563.6c-68.8,0-133.5-26.8-182.2-75.5C53.2,439.5,26.4,374.8,26.4,306v-22
				c0-68.8,26.8-133.5,75.5-182.2C150.5,53.2,215.2,26.4,284,26.4h512c68.8,0,133.5,26.8,182.2,75.5
				c48.7,48.7,75.5,113.4,75.5,182.2v22c0,68.8-26.8,133.5-75.5,182.2c-48.7,48.7-113.4,75.5-182.2,75.5H284z"/>
			<path class="st46" d="M284,563.1c-68.7,0-133.2-26.7-181.8-75.3C53.7,439.2,26.9,374.7,26.9,306v-22
				c0-68.7,26.7-133.2,75.3-181.8C150.8,53.7,215.3,26.9,284,26.9h512c68.7,0,133.2,26.7,181.8,75.3
				c48.6,48.6,75.3,113.1,75.3,181.8v22c0,68.7-26.7,133.2-75.3,181.8c-48.6,48.6-113.1,75.3-181.8,75.3H284z"/>
			<path class="st47" d="M284,562.5c-68.5,0-132.9-26.7-181.4-75.1C54.2,438.9,27.5,374.5,27.5,306v-22
				c0-68.5,26.7-132.9,75.1-181.4C151.1,54.2,215.5,27.5,284,27.5h512c68.5,0,132.9,26.7,181.4,75.1
				c48.4,48.4,75.1,112.8,75.1,181.4v22c0,68.5-26.7,132.9-75.1,181.4c-48.4,48.4-112.8,75.1-181.4,75.1H284z"/>
			<path class="st48" d="M284,561.9c-68.4,0-132.6-26.6-180.9-75c-48.3-48.3-75-112.6-75-181v-22c0-68.4,26.6-132.6,75-180.9
				c48.3-48.3,112.6-75,180.9-75h512c68.4,0,132.6,26.6,180.9,75c48.3,48.3,75,112.6,75,180.9v22c0,68.4-26.6,132.6-75,181
				c-48.3,48.3-112.6,75-180.9,75H284z"/>
			<path class="st49" d="M284,561.3c-68.2,0-132.3-26.6-180.5-74.8C55.2,438.3,28.7,374.2,28.7,306v-22
				c0-68.2,26.6-132.3,74.8-180.5C151.7,55.2,215.8,28.7,284,28.7h512c68.2,0,132.3,26.6,180.5,74.8
				c48.2,48.2,74.8,112.3,74.8,180.5v22c0,68.2-26.6,132.3-74.8,180.5c-48.2,48.2-112.3,74.8-180.5,74.8H284z"/>
			<path class="st50" d="M284,560.7c-68,0-132-26.5-180.1-74.6C55.8,438,29.3,374,29.3,306v-22c0-68,26.5-132,74.6-180.1
				C152,55.8,216,29.3,284,29.3h512c68,0,132,26.5,180.1,74.6c48.1,48.1,74.6,112.1,74.6,180.1v22c0,68-26.5,132-74.6,180.1
				C928,534.2,864,560.7,796,560.7H284z"/>
			<path class="st51" d="M284,560.2c-67.9,0-131.7-26.4-179.7-74.4c-48-48-74.4-111.8-74.4-179.7v-22c0-67.9,26.4-131.7,74.4-179.7
				c48-48,111.8-74.4,179.7-74.4h512c67.9,0,131.7,26.4,179.7,74.4c48,48,74.4,111.8,74.4,179.7v22c0,67.9-26.4,131.7-74.4,179.7
				c-48,48-111.8,74.4-179.7,74.4H284z"/>
			<path class="st52" d="M284,559.6c-67.7,0-131.4-26.4-179.3-74.3C56.8,437.4,30.4,373.7,30.4,306v-22
				c0-67.7,26.4-131.4,74.3-179.3C152.6,56.8,216.3,30.4,284,30.4h512c67.7,0,131.4,26.4,179.3,74.3
				c47.9,47.9,74.3,111.6,74.3,179.3v22c0,67.7-26.4,131.4-74.3,179.3c-47.9,47.9-111.6,74.3-179.3,74.3H284z"/>
			<path class="st53" d="M284,559c-67.6,0-131.1-26.3-178.9-74.1C57.3,437.1,31,373.6,31,306v-22c0-67.6,26.3-131.1,74.1-178.9
				C152.9,57.3,216.4,31,284,31h512c67.6,0,131.1,26.3,178.9,74.1c47.8,47.8,74.1,111.3,74.1,178.9v22c0,67.6-26.3,131.1-74.1,178.9
				C927.1,532.7,863.6,559,796,559H284z"/>
			<path class="st54" d="M284,558.4c-67.4,0-130.8-26.3-178.5-73.9C57.8,436.8,31.6,373.4,31.6,306v-22
				c0-67.4,26.3-130.8,73.9-178.5C153.2,57.8,216.6,31.6,284,31.6h512c67.4,0,130.8,26.3,178.5,73.9
				c47.7,47.7,73.9,111.1,73.9,178.5v22c0,67.4-26.3,130.8-73.9,178.5c-47.7,47.7-111.1,73.9-178.5,73.9H284z"/>
			<path class="st55" d="M284,557.9c-67.3,0-130.5-26.2-178.1-73.8C58.3,436.5,32.1,373.3,32.1,306v-22
				c0-67.3,26.2-130.5,73.8-178.1C153.5,58.3,216.7,32.1,284,32.1h512c67.3,0,130.5,26.2,178.1,73.8
				c47.6,47.6,73.8,110.8,73.8,178.1v22c0,67.3-26.2,130.5-73.8,178.1c-47.6,47.6-110.8,73.8-178.1,73.8H284z"/>
			<path class="st56" d="M284,557.3c-67.1,0-130.2-26.1-177.7-73.6C58.9,436.2,32.7,373.1,32.7,306v-22
				c0-67.1,26.1-130.2,73.6-177.7C153.8,58.9,216.9,32.7,284,32.7h512c67.1,0,130.2,26.1,177.7,73.6
				c47.5,47.5,73.6,110.6,73.6,177.7v22c0,67.1-26.1,130.2-73.6,177.7c-47.5,47.5-110.6,73.6-177.7,73.6H284z"/>
			<path class="st57" d="M284,556.7c-67,0-129.9-26.1-177.3-73.4C59.4,435.9,33.3,373,33.3,306v-22c0-67,26.1-129.9,73.4-177.3
				C154.1,59.4,217,33.3,284,33.3h512c67,0,129.9,26.1,177.3,73.4c47.4,47.4,73.4,110.3,73.4,177.3v22c0,67-26.1,129.9-73.4,177.3
				C925.9,530.6,863,556.7,796,556.7H284z"/>
			<path class="st58" d="M284,556.1c-66.8,0-129.6-26-176.9-73.3C59.9,435.6,33.9,372.8,33.9,306v-22c0-66.8,26-129.6,73.3-176.9
				C154.4,59.9,217.2,33.9,284,33.9h512c66.8,0,129.6,26,176.9,73.3c47.2,47.2,73.3,110.1,73.3,176.9v22c0,66.8-26,129.6-73.3,176.9
				c-47.2,47.2-110.1,73.3-176.9,73.3H284z"/>
			<path class="st59" d="M284,555.5c-66.7,0-129.3-26-176.5-73.1C60.4,435.3,34.5,372.7,34.5,306v-22c0-66.7,26-129.3,73.1-176.5
				C154.7,60.4,217.3,34.5,284,34.5h512c66.7,0,129.3,26,176.5,73.1c47.1,47.1,73.1,109.8,73.1,176.5v22c0,66.7-26,129.3-73.1,176.5
				c-47.1,47.1-109.8,73.1-176.5,73.1H284z"/>
			<path class="st60" d="M284,555c-66.5,0-129-25.9-176-72.9C60.9,435,35,372.5,35,306v-22c0-66.5,25.9-129,72.9-176
				C155,60.9,217.5,35,284,35h512c66.5,0,129,25.9,176,72.9c47,47,72.9,109.5,72.9,176v22c0,66.5-25.9,129-72.9,176.1
				c-47,47-109.5,72.9-176,72.9H284z"/>
			<path class="st61" d="M284,554.4c-66.3,0-128.7-25.8-175.6-72.8C61.4,434.7,35.6,372.3,35.6,306v-22
				c0-66.3,25.8-128.7,72.8-175.6C155.3,61.4,217.7,35.6,284,35.6h512c66.3,0,128.7,25.8,175.6,72.8
				c46.9,46.9,72.8,109.3,72.8,175.6v22c0,66.3-25.8,128.7-72.8,175.6c-46.9,46.9-109.3,72.8-175.6,72.8H284z"/>
			<path class="st62" d="M284,553.8c-66.2,0-128.4-25.8-175.2-72.6C62,434.4,36.2,372.2,36.2,306v-22c0-66.2,25.8-128.4,72.6-175.2
				C155.6,62,217.8,36.2,284,36.2h512c66.2,0,128.4,25.8,175.2,72.6c46.8,46.8,72.6,109,72.6,175.2v22c0,66.2-25.8,128.4-72.6,175.2
				c-46.8,46.8-109,72.6-175.2,72.6H284z"/>
			<path class="st63" d="M284,553.2c-66,0-128.1-25.7-174.8-72.4C62.5,434.1,36.8,372,36.8,306v-22c0-66,25.7-128.1,72.4-174.8
				C155.9,62.5,218,36.8,284,36.8h512c66,0,128.1,25.7,174.8,72.4c46.7,46.7,72.4,108.8,72.4,174.8v22c0,66-25.7,128.1-72.4,174.8
				C924.1,527.5,862,553.2,796,553.2H284z"/>
			<path class="st64" d="M284,552.7c-65.9,0-127.8-25.7-174.4-72.2C63,433.8,37.3,371.9,37.3,306v-22c0-65.9,25.7-127.8,72.2-174.4
				C156.2,63,218.1,37.3,284,37.3h512c65.9,0,127.8,25.7,174.4,72.2c46.6,46.6,72.2,108.5,72.2,174.4v22
				c0,65.9-25.7,127.8-72.2,174.4C923.8,527,861.9,552.7,796,552.7H284z"/>
			<path class="st65" d="M284,552.1c-65.7,0-127.5-25.6-174-72.1c-46.5-46.5-72.1-108.3-72.1-174v-22c0-65.7,25.6-127.5,72.1-174
				c46.5-46.5,108.3-72.1,174-72.1h512c65.7,0,127.5,25.6,174,72.1c46.5,46.5,72.1,108.3,72.1,174v22c0,65.7-25.6,127.5-72.1,174
				c-46.5,46.5-108.3,72.1-174,72.1H284z"/>
			<path class="st66" d="M284,551.5c-65.6,0-127.2-25.5-173.6-71.9C64,433.2,38.5,371.6,38.5,306v-22c0-65.6,25.5-127.2,71.9-173.6
				C156.8,64,218.4,38.5,284,38.5h512c65.6,0,127.2,25.5,173.6,71.9c46.4,46.4,71.9,108,71.9,173.6v22c0,65.6-25.5,127.2-71.9,173.6
				c-46.4,46.4-108,71.9-173.6,71.9H284z"/>
			<path class="st67" d="M284,550.9c-65.4,0-126.9-25.5-173.2-71.7C64.5,432.9,39.1,371.4,39.1,306v-22
				c0-65.4,25.5-126.9,71.7-173.2C157.1,64.5,218.6,39.1,284,39.1h512c65.4,0,126.9,25.5,173.2,71.7
				c46.3,46.3,71.7,107.8,71.7,173.2v22c0,65.4-25.5,126.9-71.7,173.2c-46.3,46.3-107.8,71.7-173.2,71.7H284z"/>
			<path class="st68" d="M284,550.4c-65.3,0-126.6-25.4-172.8-71.6C65.1,432.6,39.6,371.3,39.6,306v-22
				c0-65.3,25.4-126.6,71.6-172.8C157.4,65.1,218.7,39.6,284,39.6h512c65.3,0,126.6,25.4,172.8,71.6
				c46.2,46.2,71.6,107.5,71.6,172.8v22c0,65.3-25.4,126.6-71.6,172.8c-46.2,46.2-107.5,71.6-172.8,71.6H284z"/>
			<path class="st69" d="M284,549.8c-65.1,0-126.3-25.4-172.4-71.4c-46-46-71.4-107.3-71.4-172.4v-22c0-65.1,25.4-126.3,71.4-172.4
				c46-46,107.3-71.4,172.4-71.4h512c65.1,0,126.3,25.4,172.4,71.4c46,46,71.4,107.3,71.4,172.4v22c0,65.1-25.4,126.3-71.4,172.4
				c-46,46-107.3,71.4-172.4,71.4H284z"/>
			<path class="st70" d="M284,549.2c-65,0-126-25.3-172-71.2C66.1,432,40.8,371,40.8,306v-22c0-65,25.3-126,71.2-172
				C158,66.1,219,40.8,284,40.8h512c65,0,126,25.3,172,71.2c45.9,45.9,71.2,107,71.2,172v22c0,65-25.3,126-71.2,172
				c-45.9,45.9-107,71.2-172,71.2H284z"/>
			<path class="st71" d="M284,548.6c-64.8,0-125.7-25.2-171.6-71.1C66.6,431.7,41.4,370.8,41.4,306v-22
				c0-64.8,25.2-125.7,71.1-171.6C158.3,66.6,219.2,41.4,284,41.4h512c64.8,0,125.7,25.2,171.6,71.1
				c45.8,45.8,71.1,106.8,71.1,171.6v22c0,64.8-25.2,125.7-71.1,171.6c-45.8,45.8-106.8,71.1-171.6,71.1H284z"/>
			<path class="st72" d="M284,548c-64.7,0-125.4-25.2-171.1-70.9C67.1,431.4,42,370.7,42,306v-22c0-64.7,25.2-125.4,70.9-171.1
				C158.6,67.1,219.3,42,284,42h512c64.7,0,125.4,25.2,171.1,70.9c45.7,45.7,70.9,106.5,70.9,171.1v22c0,64.7-25.2,125.4-70.9,171.2
				C921.4,522.9,860.7,548,796,548H284z"/>
			<path class="st73" d="M284,547.5c-64.5,0-125.1-25.1-170.7-70.7C67.7,431.1,42.5,370.5,42.5,306v-22
				c0-64.5,25.1-125.1,70.7-170.7C158.9,67.7,219.5,42.5,284,42.5h512c64.5,0,125.1,25.1,170.7,70.7
				c45.6,45.6,70.7,106.2,70.7,170.7v22c0,64.5-25.1,125.1-70.7,170.7c-45.6,45.6-106.2,70.7-170.7,70.7H284z"/>
			<path class="st74" d="M284,546.9c-64.3,0-124.8-25.1-170.3-70.6c-45.5-45.5-70.6-106-70.6-170.3v-22
				c0-64.3,25.1-124.8,70.6-170.3c45.5-45.5,106-70.6,170.3-70.6h512c64.3,0,124.8,25.1,170.3,70.6c45.5,45.5,70.6,106,70.6,170.3
				v22c0,64.3-25.1,124.8-70.6,170.3c-45.5,45.5-106,70.6-170.3,70.6H284z"/>
			<path class="st75" d="M284,546.3c-64.2,0-124.5-25-169.9-70.4C68.7,430.5,43.7,370.2,43.7,306v-22c0-64.2,25-124.5,70.4-169.9
				C159.5,68.7,219.8,43.7,284,43.7h512c64.2,0,124.5,25,169.9,70.4c45.4,45.4,70.4,105.7,70.4,169.9v22c0,64.2-25,124.5-70.4,169.9
				c-45.4,45.4-105.7,70.4-169.9,70.4H284z"/>
			<path class="st76" d="M284,545.7c-64,0-124.2-24.9-169.5-70.2C69.2,430.2,44.3,370,44.3,306v-22c0-64,24.9-124.2,70.2-169.5
				C159.8,69.2,220,44.3,284,44.3h512c64,0,124.2,24.9,169.5,70.2c45.3,45.3,70.2,105.5,70.2,169.5v22c0,64-24.9,124.2-70.2,169.5
				C920.2,520.8,860,545.7,796,545.7H284z"/>
			<path class="st77" d="M284,545.2c-63.9,0-123.9-24.9-169.1-70c-45.2-45.2-70-105.2-70-169.1v-22c0-63.9,24.9-123.9,70-169.1
				c45.2-45.2,105.2-70,169.1-70h512c63.9,0,123.9,24.9,169.1,70c45.2,45.2,70,105.2,70,169.1v22c0,63.9-24.9,123.9-70,169.1
				c-45.2,45.2-105.2,70-169.1,70H284z"/>
			<path class="st78" d="M284,544.6c-63.7,0-123.6-24.8-168.7-69.9c-45.1-45.1-69.9-105-69.9-168.7v-22
				c0-63.7,24.8-123.6,69.9-168.7c45.1-45.1,105-69.9,168.7-69.9h512c63.7,0,123.6,24.8,168.7,69.9c45.1,45.1,69.9,105,69.9,168.7
				v22c0,63.7-24.8,123.6-69.9,168.7c-45.1,45.1-105,69.9-168.7,69.9H284z"/>
			<path class="st79" d="M284,544c-63.6,0-123.3-24.8-168.3-69.7C70.8,429.3,46,369.6,46,306v-22c0-63.6,24.8-123.3,69.7-168.3
				C160.7,70.8,220.4,46,284,46h512c63.6,0,123.3,24.8,168.3,69.7c45,45,69.7,104.7,69.7,168.3v22c0,63.6-24.8,123.3-69.7,168.3
				c-45,45-104.7,69.7-168.3,69.7H284z"/>
		</g>
	</g>
</g>
<g>
	<image style="overflow:visible;" width="1132" height="642" xlink:href="B180238E.png"  transform="matrix(1 0 0 1 -26 -26)">
	</image>
</g>
<g class="st80">
	<defs>
		<filter id="Adobe_OpacityMaskFilter" filterUnits="userSpaceOnUse" x="-33" y="-33" width="1146" height="656">
			<feFlood  style="flood-color:white;flood-opacity:1" result="back"/>
			<feBlend  in="SourceGraphic" in2="back" mode="normal"/>
		</filter>
	</defs>
	<mask maskUnits="userSpaceOnUse" x="-33" y="-33" width="1146" height="656" id="SVGID_2_">
		<g class="st81">
			<image style="overflow:visible;" width="1150" height="660" xlink:href="B1802381.jpg"  transform="matrix(1 0 0 1 -35 -35)">
			</image>
		</g>
	</mask>
	<g style="mask:url(#SVGID_2_);">
		<image style="overflow:visible;" width="1146" height="656" xlink:href="B180238F.png"  transform="matrix(1 0 0 1 -33 -33)">
		</image>
	</g>
</g>
<path class="st82" d="M432.4,114h216.3c1.7,0,1.9,0,2.9-2l22.3-42.4c2.2-4.2,7.3-5.3,9.6-5.6V64c0,0,0.4,0,0.6,0c0.4,0,0.6,0,0.7,0
	h4l0,0H796c58.8,0,114,22.9,155.6,64.4C993.1,170,1016,225.2,1016,284v22c0,58.8-22.9,114-64.4,155.6C910,503.1,854.8,526,796,526
	H284c-58.8,0-114-22.9-155.6-64.4C86.9,420,64,364.8,64,306v-22c0-58.8,22.9-114,64.4-155.6C170,86.9,225.2,64,284,64h112
	c6.7,0,9.5,2.7,10.3,6l21.9,41.6c0.9,1.2,1.9,2.1,3.5,2.4H432.4z"/>
<linearGradient id="SVGID_3_" gradientUnits="userSpaceOnUse" x1="436" y1="83.75" x2="462" y2="83.75">
	<stop  offset="0.125" style="stop-color:#A16117"/>
	<stop  offset="0.5" style="stop-color:#C08C3C"/>
	<stop  offset="0.875" style="stop-color:#A16117"/>
</linearGradient>
<path class="st83" d="M462,109.8c0,1.3-1.3,2.3-3,2.3h-20c-1.7,0-3-1-3-2.3V57.7c0-1.3,1.3-2.3,3-2.3h20c1.7,0,3,1,3,2.3V109.8z"/>
<linearGradient id="SVGID_4_" gradientUnits="userSpaceOnUse" x1="466.3335" y1="83.75" x2="492.3335" y2="83.75">
	<stop  offset="0.125" style="stop-color:#A16117"/>
	<stop  offset="0.5" style="stop-color:#C08C3C"/>
	<stop  offset="0.875" style="stop-color:#A16117"/>
</linearGradient>
<path class="st84" d="M492.3,109.8c0,1.3-1.3,2.3-3,2.3h-20c-1.7,0-3-1-3-2.3V57.7c0-1.3,1.3-2.3,3-2.3h20c1.7,0,3,1,3,2.3V109.8z"
	/>
<linearGradient id="SVGID_5_" gradientUnits="userSpaceOnUse" x1="496.6665" y1="83.75" x2="522.6665" y2="83.75">
	<stop  offset="0.125" style="stop-color:#A16117"/>
	<stop  offset="0.5" style="stop-color:#C08C3C"/>
	<stop  offset="0.875" style="stop-color:#A16117"/>
</linearGradient>
<path class="st85" d="M522.7,109.8c0,1.3-1.3,2.3-3,2.3h-20c-1.7,0-3-1-3-2.3V57.7c0-1.3,1.3-2.3,3-2.3h20c1.7,0,3,1,3,2.3V109.8z"
	/>
<linearGradient id="SVGID_6_" gradientUnits="userSpaceOnUse" x1="527" y1="83.75" x2="553" y2="83.75">
	<stop  offset="0.125" style="stop-color:#A16117"/>
	<stop  offset="0.5" style="stop-color:#C08C3C"/>
	<stop  offset="0.875" style="stop-color:#A16117"/>
</linearGradient>
<path class="st86" d="M553,109.8c0,1.3-1.3,2.3-3,2.3h-20c-1.7,0-3-1-3-2.3V57.7c0-1.3,1.3-2.3,3-2.3h20c1.7,0,3,1,3,2.3V109.8z"/>
<linearGradient id="SVGID_7_" gradientUnits="userSpaceOnUse" x1="557.333" y1="83.75" x2="583.333" y2="83.75">
	<stop  offset="0.125" style="stop-color:#A16117"/>
	<stop  offset="0.5" style="stop-color:#C08C3C"/>
	<stop  offset="0.875" style="stop-color:#A16117"/>
</linearGradient>
<path class="st87" d="M583.3,109.8c0,1.3-1.3,2.3-3,2.3h-20c-1.7,0-3-1-3-2.3V57.7c0-1.3,1.3-2.3,3-2.3h20c1.7,0,3,1,3,2.3V109.8z"
	/>
<linearGradient id="SVGID_8_" gradientUnits="userSpaceOnUse" x1="587.667" y1="83.75" x2="613.667" y2="83.75">
	<stop  offset="0.125" style="stop-color:#A16117"/>
	<stop  offset="0.5" style="stop-color:#C08C3C"/>
	<stop  offset="0.875" style="stop-color:#A16117"/>
</linearGradient>
<path class="st88" d="M613.7,109.8c0,1.3-1.3,2.3-3,2.3h-20c-1.7,0-3-1-3-2.3V57.7c0-1.3,1.3-2.3,3-2.3h20c1.7,0,3,1,3,2.3V109.8z"
	/>
<linearGradient id="SVGID_9_" gradientUnits="userSpaceOnUse" x1="618" y1="83.75" x2="644" y2="83.75">
	<stop  offset="0.125" style="stop-color:#A16117"/>
	<stop  offset="0.5" style="stop-color:#C08C3C"/>
	<stop  offset="0.875" style="stop-color:#A16117"/>
</linearGradient>
<path class="st89" d="M644,109.8c0,1.3-1.3,2.3-3,2.3h-20c-1.7,0-3-1-3-2.3V57.7c0-1.3,1.3-2.3,3-2.3h20c1.7,0,3,1,3,2.3V109.8z"/>
<g class="st80">
	<image style="overflow:visible;" width="100" height="132" xlink:href="B1802382.png"  transform="matrix(1 0 0 1 399 18)">
	</image>
</g>
<g class="st80">
	<image style="overflow:visible;" width="100" height="132" xlink:href="B1802386.png"  transform="matrix(1 0 0 1 429 18)">
	</image>
</g>
<g class="st80">
	<image style="overflow:visible;" width="100" height="132" xlink:href="A78521F0.png"  transform="matrix(1 0 0 1 460 18)">
	</image>
</g>
<g class="st80">
	<image style="overflow:visible;" width="100" height="132" xlink:href="A78521F7.png"  transform="matrix(1 0 0 1 490 18)">
	</image>
</g>
<g class="st80">
	<image style="overflow:visible;" width="100" height="132" xlink:href="A78521F1.png"  transform="matrix(1 0 0 1 520 18)">
	</image>
</g>
<g class="st80">
	<image style="overflow:visible;" width="100" height="132" xlink:href="A78521F3.png"  transform="matrix(1 0 0 1 551 18)">
	</image>
</g>
<g class="st80">
	<image style="overflow:visible;" width="100" height="132" xlink:href="A78521EE.png"  transform="matrix(1 0 0 1 581 18)">
	</image>
</g>
<path class="st90" d="M462,114.5c0,1.7-1.3,3-3,3h-20c-1.7,0-3-1.3-3-3v-67c0-1.7,1.3-3,3-3h20c1.7,0,3,1.3,3,3V114.5z"/>
<path class="st90" d="M492.3,114.5c0,1.7-1.3,3-3,3h-20c-1.7,0-3-1.3-3-3v-67c0-1.7,1.3-3,3-3h20c1.7,0,3,1.3,3,3V114.5z"/>
<path class="st90" d="M522.7,114.5c0,1.7-1.3,3-3,3h-20c-1.7,0-3-1.3-3-3v-67c0-1.7,1.3-3,3-3h20c1.7,0,3,1.3,3,3V114.5z"/>
<path class="st90" d="M553,114.5c0,1.7-1.3,3-3,3h-20c-1.7,0-3-1.3-3-3v-67c0-1.7,1.3-3,3-3h20c1.7,0,3,1.3,3,3V114.5z"/>
<path class="st90" d="M583.3,114.5c0,1.7-1.3,3-3,3h-20c-1.7,0-3-1.3-3-3v-67c0-1.7,1.3-3,3-3h20c1.7,0,3,1.3,3,3V114.5z"/>
<path class="st90" d="M613.7,114.5c0,1.7-1.3,3-3,3h-20c-1.7,0-3-1.3-3-3v-67c0-1.7,1.3-3,3-3h20c1.7,0,3,1.3,3,3V114.5z"/>
<path class="st90" d="M644,114.5c0,1.7-1.3,3-3,3h-20c-1.7,0-3-1.3-3-3v-67c0-1.7,1.3-3,3-3h20c1.7,0,3,1.3,3,3V114.5z"/>
</svg>
